<svg xmlns="http://www.w3.org/2000/svg" viewBox="0 0 276.91 231.52"><defs><style>.cls-1{fill:#f7f7f7;stroke:#fff;stroke-miterlimit:10;stroke-width:1.19px;}.cls-2{fill:#2b73d2;}.cls-3{fill:#fff;}</style></defs><title>资源 2</title><g id="图层_2" data-name="图层 2"><g id="图层_1-2" data-name="图层 1"><rect class="cls-1" x="0.6" y="0.6" width="275.72" height="230.33"/><rect class="cls-2" x="63.01" y="51" width="150.89" height="150.89" rx="28.24" ry="28.24"/><path class="cls-3" d="M194.13,123.42H185v-17.2A1.24,1.24,0,0,0,183.8,105h-17l-3.2-15.06a1.25,1.25,0,0,0-1.47-1L149,91.78l-4.89-11a1.18,1.18,0,0,0-.69-.64,1.21,1.21,0,0,0-.95,0L86.61,105.05l0,0h0l-.15.08a.24.24,0,0,0-.08.06l-.09.06a3.06,3.06,0,0,0-.25.33.75.75,0,0,0-.08.18h0l0,.06s0,0,0,.06a.06.06,0,0,0,0,0h0v0a0,0,0,0,0,0,0,.58.58,0,0,0,0,.19v65A1.25,1.25,0,0,0,87,172.44H183.8A1.24,1.24,0,0,0,185,171.2V154h9.1a1.24,1.24,0,0,0,1.24-1.23v-28.1A1.25,1.25,0,0,0,194.13,123.42ZM164.32,105H98.8l49.72-10.57,13-2.76Zm-22-22,4.16,9.36L98.28,102.56Zm40.21,68.58H149.49V125.9h33.07Zm0-28.1h-34.3a1.25,1.25,0,0,0-1.24,1.24v28.1a1.24,1.24,0,0,0,1.24,1.23h34.3v16H88.27V107.45h94.29Zm10.34,28.1H185V125.9h7.87Z"/><circle class="cls-3" cx="87.03" cy="106.21" r="5.49"/><circle class="cls-3" cx="161.99" cy="89.74" r="5.49"/><circle class="cls-3" cx="142.62" cy="81.68" r="5.49"/><circle class="cls-3" cx="183.79" cy="106.21" r="5.49"/><circle class="cls-3" cx="169.29" cy="138.71" r="5.49"/><circle class="cls-3" cx="87.03" cy="171.2" r="5.49"/><circle class="cls-3" cx="183.79" cy="171.2" r="5.49"/></g></g></svg>