<svg xmlns="http://www.w3.org/2000/svg" viewBox="0 0 9.71 8.82"><defs><style>.cls-1{fill:#2b73d2;}</style></defs><title>资源 52</title><g id="图层_2" data-name="图层 2"><g id="图层_1-2" data-name="图层 1"><path class="cls-1" d="M4.85,7.5C2.23,7.5.17,4.79.09,4.67a.42.42,0,0,1,0-.52,8.85,8.85,0,0,1,1.36-1.4A.43.43,0,1,1,2,3.42a8.71,8.71,0,0,0-1,1c.63.73,2.54,2.64,4.64,2.12a.43.43,0,1,1,.21.84A4.2,4.2,0,0,1,4.85,7.5ZM8,6.17A.39.39,0,0,1,7.65,6a.43.43,0,0,1,0-.61,8,8,0,0,0,1-1c-.63-.72-2.52-2.64-4.63-2.12A.42.42,0,0,1,3.56,2a.43.43,0,0,1,.31-.52,4.17,4.17,0,0,1,1-.12C7.48,1.33,9.53,4,9.62,4.15a.42.42,0,0,1,0,.52,8.85,8.85,0,0,1-1.36,1.4A.44.44,0,0,1,8,6.17Z"/><path class="cls-1" d="M4.85,6A1.54,1.54,0,0,1,3.32,4.41a1.56,1.56,0,0,1,.4-1A.44.44,0,1,1,4.36,4a.63.63,0,0,0-.18.45.67.67,0,0,0,1.14.48.43.43,0,1,1,.61.62A1.55,1.55,0,0,1,4.85,6Z"/><path class="cls-1" d="M8.83,8.82a.42.42,0,0,1-.3-.12l-8-8A.43.43,0,0,1,1.18.13l8,8a.44.44,0,0,1,0,.62A.47.47,0,0,1,8.83,8.82Z"/></g></g></svg>