<svg xmlns="http://www.w3.org/2000/svg" viewBox="0 0 10.99 10.99"><defs><style>.cls-1{fill:#ff6470;}</style></defs><title>资源 38</title><g id="图层_2" data-name="图层 2"><g id="图层_1-2" data-name="图层 1"><path class="cls-1" d="M5.5,11A5.49,5.49,0,0,1,0,5.5.47.47,0,0,1,.46,5a.46.46,0,0,1,.46.47A4.58,4.58,0,0,0,7.25,9.72,4.5,4.5,0,0,0,8,9.3a5.45,5.45,0,0,0,.7-.57A5.36,5.36,0,0,0,9.3,8a.46.46,0,0,1,.64-.13.47.47,0,0,1,.13.64,5,5,0,0,1-.69.83,5,5,0,0,1-.83.69,5.07,5.07,0,0,1-1,.5A5.43,5.43,0,0,1,5.5,11Zm5-5a.46.46,0,0,1-.46-.46A4.58,4.58,0,0,0,5.5.92a4.52,4.52,0,0,0-1.75.35A4.94,4.94,0,0,0,3,1.69a5.45,5.45,0,0,0-.7.57,5.45,5.45,0,0,0-.57.7.45.45,0,0,1-.64.12.47.47,0,0,1-.13-.64,5,5,0,0,1,.69-.83A4.49,4.49,0,0,1,2.44.93a5.12,5.12,0,0,1,1-.51A5.44,5.44,0,0,1,5.5,0,5.5,5.5,0,0,1,11,5.5.47.47,0,0,1,10.53,6Z"/><path class="cls-1" d="M10.53,6a.46.46,0,0,1-.46-.46V1a.46.46,0,0,1,.46-.46A.47.47,0,0,1,11,1V5.5A.47.47,0,0,1,10.53,6Z"/><path class="cls-1" d="M.46,10.43A.46.46,0,0,1,0,10V5.5A.47.47,0,0,1,.46,5a.46.46,0,0,1,.46.47V10A.45.45,0,0,1,.46,10.43Z"/></g></g></svg>