<svg xmlns="http://www.w3.org/2000/svg" viewBox="0 0 170.89 43.22"><defs><style>.cls-1{fill:#2b73d2;}</style></defs><title>资源 8</title><g id="图层_2" data-name="图层 2"><g id="图层_1-2" data-name="图层 1"><path class="cls-1" d="M26.26,33.6H18.62l-12-15.74V33.6H0V0H6.62V14.81L18.14,0h7.64L13.35,16.32Z"/><path class="cls-1" d="M32.31,24.15c.83,3,3.08,4.51,6.76,4.51a6.34,6.34,0,0,0,5.38-2.4l5,2.88Q45.89,34.27,39,34.27a12.9,12.9,0,0,1-9.55-3.6,12.29,12.29,0,0,1-3.6-9.07,12.42,12.42,0,0,1,3.55-9A12.23,12.23,0,0,1,38.5,8.93a11.45,11.45,0,0,1,8.71,3.65,12.65,12.65,0,0,1,3.43,9,14.6,14.6,0,0,1-.24,2.55Zm-.1-4.8H44.45a5.79,5.79,0,0,0-2.18-3.65,6.27,6.27,0,0,0-3.77-1.2,6.5,6.5,0,0,0-4.13,1.27A6.06,6.06,0,0,0,32.21,19.35Z"/><path class="cls-1" d="M69.65,9.6h6.62l-8.75,24a15.75,15.75,0,0,1-5,7.47,11.35,11.35,0,0,1-7.69,2.09V37.44a6.28,6.28,0,0,0,4-1,7.37,7.37,0,0,0,2.32-3.56L51.31,9.6h6.77l6.26,16.13Z"/><path class="cls-1" d="M89.67,34.27A12.4,12.4,0,0,1,77,21.6,12.42,12.42,0,0,1,89.67,8.93a12.44,12.44,0,0,1,6.38,1.68,11.15,11.15,0,0,1,4.37,4.51l-5.33,3.12a5.43,5.43,0,0,0-2.18-2.35A6.31,6.31,0,0,0,89.62,15,6.21,6.21,0,0,0,85,16.87a6.45,6.45,0,0,0-1.82,4.73A6.36,6.36,0,0,0,85,26.28a6.22,6.22,0,0,0,4.61,1.85A6.6,6.6,0,0,0,93,27.29,5.33,5.33,0,0,0,95.14,25L100.52,28a12.09,12.09,0,0,1-4.47,4.54A12.26,12.26,0,0,1,89.67,34.27Z"/><path class="cls-1" d="M110.16,13.73A6.48,6.48,0,0,1,113,10.27a8.7,8.7,0,0,1,4.44-1.15V16a7.3,7.3,0,0,0-5.06,1.15c-1.49,1-2.24,2.64-2.24,4.95V33.6H104V9.6h6.19Z"/><path class="cls-1" d="M136.9,9.6h6.19v24H136.9V30.91c-1.5,2.24-3.89,3.36-7.15,3.36a8.67,8.67,0,0,1-6.5-2.64,10,10,0,0,1-2.57-7.29V9.6h6.19v14a4.89,4.89,0,0,0,1.3,3.67,4.69,4.69,0,0,0,3.45,1.27A5.1,5.1,0,0,0,135.46,27a6.21,6.21,0,0,0,1.44-4.47Z"/><path class="cls-1" d="M170.89,33.6h-7.16l-5.2-7.27-5.21,7.27h-7.15L155,21.35,146.55,9.6h7.15l4.84,6.76L163.4,9.6h7.1l-8.4,11.73Z"/></g></g></svg>