<svg xmlns="http://www.w3.org/2000/svg" viewBox="0 0 186.46 45.44"><defs><style>.cls-1{fill:#2b73d2;}</style></defs><title>资源 7</title><g id="图层_2" data-name="图层 2"><g id="图层_1-2" data-name="图层 1"><path class="cls-1" d="M26.26,35.82H18.62l-12-15.74V35.82H0V2.21H6.62V17L18.14,2.21h7.64L13.35,18.53Z"/><path class="cls-1" d="M32.31,26.36q1.24,4.52,6.76,4.51a6.34,6.34,0,0,0,5.38-2.4l5,2.88Q45.89,36.5,39,36.49a12.9,12.9,0,0,1-9.55-3.6,12.31,12.31,0,0,1-3.6-9.08,12.38,12.38,0,0,1,3.55-9,12.2,12.2,0,0,1,9.12-3.63,11.45,11.45,0,0,1,8.71,3.65,12.65,12.65,0,0,1,3.43,9,14.6,14.6,0,0,1-.24,2.55Zm-.1-4.8H44.45a5.82,5.82,0,0,0-2.18-3.65,6.27,6.27,0,0,0-3.77-1.2A6.5,6.5,0,0,0,34.37,18,6.06,6.06,0,0,0,32.21,21.56Z"/><path class="cls-1" d="M69.65,11.81h6.62l-8.75,24a15.75,15.75,0,0,1-5,7.47,11.35,11.35,0,0,1-7.69,2.1V39.65a6.22,6.22,0,0,0,4-1,7.39,7.39,0,0,0,2.32-3.55L51.31,11.81h6.77L64.34,28Z"/><path class="cls-1" d="M89.67,36.49A12.42,12.42,0,0,1,77,23.81,12.42,12.42,0,0,1,89.67,11.14a12.44,12.44,0,0,1,6.38,1.68,11.21,11.21,0,0,1,4.37,4.51l-5.33,3.12a5.49,5.49,0,0,0-2.18-2.35,6.41,6.41,0,0,0-3.29-.86A6.18,6.18,0,0,0,85,19.09a6.41,6.41,0,0,0-1.82,4.72A6.4,6.4,0,0,0,85,28.5a6.21,6.21,0,0,0,4.61,1.84A6.6,6.6,0,0,0,93,29.5a5.28,5.28,0,0,0,2.18-2.33l5.38,3.08a12,12,0,0,1-4.47,4.53A12.27,12.27,0,0,1,89.67,36.49Z"/><path class="cls-1" d="M110.16,15.94A6.46,6.46,0,0,1,113,12.49a8.7,8.7,0,0,1,4.44-1.16v6.92a7.25,7.25,0,0,0-5.06,1.15q-2.24,1.49-2.24,4.94V35.82H104v-24h6.19Z"/><path class="cls-1" d="M136.9,11.81h6.19v24H136.9V33.13c-1.5,2.24-3.89,3.36-7.15,3.36a8.67,8.67,0,0,1-6.5-2.64,10,10,0,0,1-2.57-7.3V11.81h6.19v14a4.88,4.88,0,0,0,1.3,3.67,4.7,4.7,0,0,0,3.45,1.28,5.11,5.11,0,0,0,3.84-1.49,6.19,6.19,0,0,0,1.44-4.47Z"/><path class="cls-1" d="M170.89,35.82h-7.16l-5.2-7.28-5.21,7.28h-7.15L155,23.56l-8.41-11.75h7.15l4.84,6.77,4.86-6.77h7.1l-8.4,11.74Z"/><path class="cls-1" d="M180.52,11.87a5.94,5.94,0,1,1,5.94-5.93A5.95,5.95,0,0,1,180.52,11.87Zm0-10.79a4.86,4.86,0,1,0,4.86,4.86A4.87,4.87,0,0,0,180.52,1.08Z"/><path class="cls-1" d="M180.52,6.52h-1.67V3.46h1.67a1.54,1.54,0,1,1,0,3.06ZM180,5.35h.49c.41,0,.49-.19.49-.36s-.08-.36-.49-.36H180Z"/><path class="cls-1" d="M181.6,8.37a.54.54,0,0,1-.44-.23L180,6.49V7.83a.54.54,0,1,1-1.08,0V4.05a.54.54,0,0,1,.54-.54h1.08A1.5,1.5,0,0,1,182.14,5a1.45,1.45,0,0,1-.93,1.36L182,7.51a.53.53,0,0,1-.13.75A.51.51,0,0,1,181.6,8.37Zm-1.34-3h.26c.47,0,.54-.26.54-.41s-.07-.4-.54-.4H180V5.4h.28Z"/></g></g></svg>