<svg xmlns="http://www.w3.org/2000/svg" viewBox="0 0 275.72 57.58"><defs><style>.cls-1{fill:#4089e9;}.cls-2{fill:#fff;}</style></defs><title>资源 6</title><g id="图层_2" data-name="图层 2"><g id="图层_1-2" data-name="图层 1"><rect class="cls-1" width="275.72" height="57.58"/><path class="cls-2" d="M97,37.34H91.69L83.4,26.47V37.34H78.83V14.13H83.4V24.36l8-10.23h5.27L88.05,25.4Z"/><path class="cls-2" d="M101.15,30.81c.57,2.08,2.13,3.11,4.67,3.11a4.39,4.39,0,0,0,3.72-1.65l3.45,2a8.24,8.24,0,0,1-7.23,3.54,8.88,8.88,0,0,1-6.6-2.48,8.5,8.5,0,0,1-2.49-6.27,8.59,8.59,0,0,1,2.45-6.25,8.45,8.45,0,0,1,6.3-2.51,7.87,7.87,0,0,1,6,2.53,8.74,8.74,0,0,1,2.37,6.23,10.09,10.09,0,0,1-.16,1.76Zm-.07-3.32h8.46A4,4,0,0,0,108,25a4.36,4.36,0,0,0-2.61-.83,4.47,4.47,0,0,0-2.85.88A4.2,4.2,0,0,0,101.08,27.49Z"/><path class="cls-2" d="M127,20.76h4.57l-6,16.61a10.92,10.92,0,0,1-3.43,5.16A7.91,7.91,0,0,1,116.73,44V40a4.26,4.26,0,0,0,2.74-.73,5.07,5.07,0,0,0,1.61-2.45l-6.8-16H119l4.33,11.14Z"/><path class="cls-2" d="M140.78,37.8a8.4,8.4,0,0,1-6.25-2.52A8.48,8.48,0,0,1,132,29.05a8.79,8.79,0,0,1,13.17-7.59,7.78,7.78,0,0,1,3,3.11l-3.69,2.16A3.71,3.71,0,0,0,143,25.1a4.44,4.44,0,0,0-2.27-.59,4.28,4.28,0,0,0-3.18,1.27,4.46,4.46,0,0,0-1.26,3.27,4.41,4.41,0,0,0,1.26,3.23,4.29,4.29,0,0,0,3.18,1.28,4.53,4.53,0,0,0,2.31-.58,3.67,3.67,0,0,0,1.51-1.61l3.71,2.12a8.36,8.36,0,0,1-3.08,3.14A8.56,8.56,0,0,1,140.78,37.8Z"/><path class="cls-2" d="M154.94,23.61a4.47,4.47,0,0,1,2-2.39,6,6,0,0,1,3.07-.79V25.2a5,5,0,0,0-3.5.8,3.78,3.78,0,0,0-1.54,3.41v7.93h-4.28V20.76h4.28Z"/><path class="cls-2" d="M173.41,20.76h4.28V37.34h-4.28V35.48a5.52,5.52,0,0,1-4.94,2.32A6,6,0,0,1,164,36a6.89,6.89,0,0,1-1.78-5V20.76h4.28v9.65a3.43,3.43,0,0,0,.89,2.54,3.3,3.3,0,0,0,2.39.88,3.56,3.56,0,0,0,2.66-1,4.31,4.31,0,0,0,1-3.09Z"/><path class="cls-2" d="M196.89,37.34H192l-3.6-5-3.6,5h-4.94l6.08-8.46-5.81-8.12H185l3.34,4.67,3.36-4.67h4.91l-5.81,8.1Z"/></g></g></svg>