<svg xmlns="http://www.w3.org/2000/svg" viewBox="0 0 64.51 56.95"><defs><style>.cls-1{fill:#fff;}</style></defs><title>资源 9</title><g id="图层_2" data-name="图层 2"><g id="图层_1-2" data-name="图层 1"><path class="cls-1" d="M63.81,26.77H58.65V17a.7.7,0,0,0-.7-.7H48.34L46.53,7.79a.71.71,0,0,0-.84-.54L38.22,8.84,35.45,2.61a.68.68,0,0,0-.39-.37.72.72,0,0,0-.54,0L2.87,16.36s0,0,0,0h0l-.08,0-.05,0s0,0-.06,0a.86.86,0,0,0-.07.1.18.18,0,0,0-.06.09.53.53,0,0,0-.06.1h0a0,0,0,0,1,0,0v0s0,0,0,0h0v0a.34.34,0,0,0,0,.1V53.83a.7.7,0,0,0,.7.7H58a.7.7,0,0,0,.7-.7V44.09h5.16a.7.7,0,0,0,.7-.69V27.47A.7.7,0,0,0,63.81,26.77ZM46.91,16.32H9.78l28.18-6L45.3,8.77ZM34.46,3.82l2.36,5.31L9.49,14.94ZM57.25,42.69H38.51V28.17H57.25Zm0-15.92H37.81a.7.7,0,0,0-.7.7V43.39a.7.7,0,0,0,.7.7H57.25v9H3.81V17.72H57.25ZM63.1,42.69H58.65V28.17H63.1Z"/><circle class="cls-1" cx="3.11" cy="17.02" r="3.11"/><circle class="cls-1" cx="45.59" cy="7.68" r="3.11"/><circle class="cls-1" cx="34.61" cy="3.11" r="3.11"/><circle class="cls-1" cx="57.95" cy="17.02" r="3.11"/><circle class="cls-1" cx="49.73" cy="35.43" r="3.11"/><circle class="cls-1" cx="3.11" cy="53.85" r="3.11"/><circle class="cls-1" cx="57.95" cy="53.85" r="3.11"/></g></g></svg>