<svg xmlns="http://www.w3.org/2000/svg" viewBox="0 0 276.91 231.52"><defs><style>.cls-1{fill:#2b73d2;stroke:#fff;stroke-miterlimit:10;stroke-width:1.19px;}.cls-2{fill:#fff;}</style></defs><title>资源 3</title><g id="图层_2" data-name="图层 2"><g id="图层_1-2" data-name="图层 1"><rect class="cls-1" x="0.6" y="0.6" width="275.72" height="230.33"/><path class="cls-2" d="M131.5,136.39h-5.93l-9.34-12.23v12.23h-5.15V110.27h5.15v11.51l9-11.51h5.93L121.46,123Z"/><path class="cls-2" d="M136.19,129c.66,2.34,2.41,3.51,5.27,3.51a4.93,4.93,0,0,0,4.18-1.86l3.87,2.24a9.22,9.22,0,0,1-8.13,4,10.05,10.05,0,0,1-7.43-2.8,9.84,9.84,0,0,1,7.05-16.9,8.93,8.93,0,0,1,6.77,2.83,9.8,9.8,0,0,1,2.67,7,11.5,11.5,0,0,1-.19,2Zm-.06-3.74h9.52a4.44,4.44,0,0,0-1.7-2.83,4.84,4.84,0,0,0-2.93-.94,5.08,5.08,0,0,0-3.21,1A4.75,4.75,0,0,0,136.13,125.3Z"/><path class="cls-2" d="M165.24,117.72h5.16l-6.8,18.7a12.31,12.31,0,0,1-3.87,5.81,8.79,8.79,0,0,1-6,1.62v-4.48a4.8,4.8,0,0,0,3.07-.82,5.72,5.72,0,0,0,1.81-2.76L151,117.72h5.27l4.87,12.55Z"/><path class="cls-2" d="M180.81,136.91a9.64,9.64,0,0,1-9.85-9.85,9.63,9.63,0,0,1,2.81-7,9.51,9.51,0,0,1,7-2.83,9.74,9.74,0,0,1,5,1.31,8.76,8.76,0,0,1,3.4,3.51L185,124.44a4.15,4.15,0,0,0-1.7-1.82,4.94,4.94,0,0,0-2.56-.67,4.78,4.78,0,0,0-3.58,1.45,5.4,5.4,0,0,0,0,7.3,4.85,4.85,0,0,0,3.58,1.44,5.15,5.15,0,0,0,2.6-.65,4.08,4.08,0,0,0,1.7-1.81l4.17,2.4a9.21,9.21,0,0,1-3.46,3.52A9.74,9.74,0,0,1,180.81,136.91Z"/><path class="cls-2" d="M196.74,120.93a5.08,5.08,0,0,1,2.22-2.69,6.76,6.76,0,0,1,3.46-.9v5.38a5.65,5.65,0,0,0-3.94.89,4.32,4.32,0,0,0-1.74,3.85v8.93h-4.81V117.72h4.81Z"/><path class="cls-2" d="M217.53,117.72h4.82v18.67h-4.82v-2.1a6.2,6.2,0,0,1-5.56,2.62,6.72,6.72,0,0,1-5.06-2.06,7.76,7.76,0,0,1-2-5.67V117.72h4.81v10.86a3.87,3.87,0,0,0,1,2.86,3.66,3.66,0,0,0,2.69,1,3.9,3.9,0,0,0,3-1.16,4.8,4.8,0,0,0,1.12-3.47V117.72Z"/><path class="cls-2" d="M244,136.39h-5.57l-4-5.66-4.06,5.66h-5.56l6.84-9.52L225,117.74h5.56l3.77,5.25,3.77-5.25h5.52l-6.53,9.13Z"/><path class="cls-2" d="M96.76,114.05H91.6V104.3a.7.7,0,0,0-.69-.7H81.3l-1.82-8.53a.7.7,0,0,0-.83-.54l-7.48,1.59-2.76-6.23a.71.71,0,0,0-.4-.36.65.65,0,0,0-.53,0l-31.65,14.1h0l-.09,0,0,0,0,0a.34.34,0,0,0-.08.09.33.33,0,0,0-.06.1.73.73,0,0,0-.05.09h0a0,0,0,0,0,0,0,.06.06,0,0,0,0,0v0h0s0,0,0,0v36.93a.7.7,0,0,0,.69.7H90.91a.7.7,0,0,0,.69-.7v-9.74h5.16a.7.7,0,0,0,.7-.7V114.76A.7.7,0,0,0,96.76,114.05ZM79.87,103.6H42.73l28.18-6,7.35-1.56ZM67.41,91.11l2.36,5.3-27.33,5.82ZM90.21,130H71.47V115.45H90.21Zm0-15.92H70.76a.71.71,0,0,0-.7.7v15.92a.7.7,0,0,0,.7.7H90.2v9H36.77V105H90.21ZM96.06,130H91.6V115.45h4.46Z"/><circle class="cls-2" cx="36.06" cy="104.3" r="3.11"/><circle class="cls-2" cx="78.55" cy="94.96" r="3.11"/><circle class="cls-2" cx="67.57" cy="90.39" r="3.11"/><circle class="cls-2" cx="90.9" cy="104.3" r="3.11"/><circle class="cls-2" cx="82.68" cy="122.71" r="3.11"/><circle class="cls-2" cx="36.06" cy="141.13" r="3.11"/><circle class="cls-2" cx="90.9" cy="141.13" r="3.11"/></g></g></svg>