<?xml version="1.0" encoding="UTF-8" standalone="no"?>
<!DOCTYPE svg PUBLIC "-//W3C//DTD SVG 1.1//EN" "http://www.w3.org/Graphics/SVG/1.1/DTD/svg11.dtd">
<!-- 由 Microsoft Visio, SVG Export 生成 radar.svg Page-1 -->
<svg xmlns="http://www.w3.org/2000/svg" xmlns:xlink="http://www.w3.org/1999/xlink" xmlns:ev="http://www.w3.org/2001/xml-events"
		xmlns:v="http://schemas.microsoft.com/visio/2003/SVGExtensions/" width="5.81208in" height="5.39504in"
		viewBox="0 0 418.47 388.443" xml:space="preserve" color-interpolation-filters="sRGB" class="st13">
	<v:documentProperties v:langID="2052" v:metric="true" v:viewMarkup="false">
		<v:userDefs>
			<v:ud v:nameU="msvNoAutoConnect" v:val="VT0(1):26"/>
		</v:userDefs>
	</v:documentProperties>

	<style type="text/css">
	<![CDATA[
		.st1 {fill:#ffffff;stroke:none;stroke-linecap:round;stroke-linejoin:round;stroke-width:0.24}
		.st2 {fill:#000000;font-family:黑体;font-size:0.833336em;font-weight:bold}
		.st3 {fill:#ffffff;stroke:#a5a5a5;stroke-linecap:round;stroke-linejoin:round;stroke-width:0.24}
		.st4 {fill:#f2f2f2;stroke:#bfbfbf;stroke-linecap:round;stroke-linejoin:round;stroke-width:0.24}
		.st5 {fill:#ffffff;stroke:#bfbfbf;stroke-linecap:round;stroke-linejoin:round;stroke-width:0.24}
		.st6 {stroke:#bfbfbf;stroke-linecap:round;stroke-linejoin:round;stroke-width:0.75}
		.st7 {fill:none;stroke:#ff0000;stroke-linecap:round;stroke-linejoin:round;stroke-width:1.5}
		.st8 {fill:none;stroke:#000000;stroke-dasharray:1.5,3;stroke-linecap:round;stroke-linejoin:round;stroke-width:1.5}
		.st9 {fill:none;stroke:#7030a0;stroke-dasharray:10.5,7.5;stroke-linecap:round;stroke-linejoin:round;stroke-width:1.5}
		.st10 {stroke:#ff0000;stroke-linecap:round;stroke-linejoin:round;stroke-width:1.5}
		.st11 {stroke:#000000;stroke-dasharray:1.5,3;stroke-linecap:round;stroke-linejoin:round;stroke-width:1.5}
		.st12 {stroke:#7030a0;stroke-dasharray:10.5,7.5;stroke-linecap:round;stroke-linejoin:round;stroke-width:1.5}
		.st13 {fill:none;fill-rule:evenodd;font-size:12px;overflow:visible;stroke-linecap:square;stroke-miterlimit:3}
	]]>
	</style>

	<g v:mID="0" v:index="1" v:groupContext="foregroundPage">
		<title>页-1</title>
		<v:pageProperties v:drawingScale="0.0393701" v:pageScale="0.0393701" v:drawingUnits="24" v:shadowOffsetX="8.50394"
				v:shadowOffsetY="-8.50394"/>
		<v:layer v:name="连接线" v:index="0"/>
		<g id="shape11-1" v:mID="11" v:groupContext="shape" transform="translate(124.643,-46.1131)">
			<title>矩形.11</title>
			<desc>功能性</desc>
			<v:userDefs>
				<v:ud v:nameU="visVersion" v:val="VT0(15):26"/>
			</v:userDefs>
			<v:textBlock v:margins="rect(4,4,4,4)" v:tabSpace="42.5197"/>
			<v:textRect cx="21.0361" cy="379.585" width="42.08" height="17.7146"/>
			<rect x="0" y="370.728" width="42.0721" height="17.7146" class="st1"/>
			<text x="5.98" y="382.59" class="st2" v:langID="2052"><v:paragraph v:horizAlign="1"/><v:tabList/>功能性</text>		</g>
		<g id="shape10-4" v:mID="10" v:groupContext="shape" transform="translate(266.375,-46.1131)">
			<title>矩形.10</title>
			<desc>创新性</desc>
			<v:userDefs>
				<v:ud v:nameU="visVersion" v:val="VT0(15):26"/>
			</v:userDefs>
			<v:textBlock v:margins="rect(4,4,4,4)" v:tabSpace="42.5197"/>
			<v:textRect cx="21.0361" cy="379.585" width="42.08" height="17.7146"/>
			<rect x="0" y="370.728" width="42.0721" height="17.7146" class="st1"/>
			<text x="5.98" y="382.59" class="st2" v:langID="2052"><v:paragraph v:horizAlign="1"/><v:tabList/>创新性</text>		</g>
		<g id="shape2-7" v:mID="2" v:groupContext="shape" transform="translate(65.8614,-63.8277)">
			<title>七边形.2</title>
			<v:userDefs>
				<v:ud v:nameU="visVersion" v:val="VT0(15):26"/>
			</v:userDefs>
			<path d="M206.43 388.44 L287.11 287.28 L258.32 161.12 L141.73 104.98 L25.15 161.12 L-3.64 287.28 L77.03 388.44 L206.43
						 388.44 Z" class="st3"/>
		</g>
		<g id="shape5-9" v:mID="5" v:groupContext="shape" transform="translate(94.2079,-92.1741)">
			<title>七边形.5</title>
			<v:userDefs>
				<v:ud v:nameU="visVersion" v:val="VT0(15):26"/>
			</v:userDefs>
			<path d="M165.14 388.44 L229.69 307.51 L206.65 206.59 L113.39 161.67 L20.12 206.59 L-2.92 307.51 L61.63 388.44 L165.14
						 388.44 Z" class="st4"/>
		</g>
		<g id="shape6-11" v:mID="6" v:groupContext="shape" transform="translate(122.554,-120.521)">
			<title>七边形.6</title>
			<v:userDefs>
				<v:ud v:nameU="visVersion" v:val="VT0(15):26"/>
			</v:userDefs>
			<path d="M123.86 388.44 L172.27 327.74 L154.99 252.05 L85.04 218.36 L15.09 252.05 L-2.19 327.74 L46.22 388.44 L123.86
						 388.44 Z" class="st5"/>
		</g>
		<g id="shape1-13" v:mID="1" v:groupContext="shape" transform="translate(150.901,-148.867)">
			<title>七边形</title>
			<v:userDefs>
				<v:ud v:nameU="visVersion" v:val="VT0(15):26"/>
			</v:userDefs>
			<path d="M82.57 388.44 L114.84 347.98 L103.33 297.51 L56.69 275.06 L10.06 297.51 L-1.46 347.98 L30.81 388.44 L82.57 388.44
						 Z" class="st4"/>
		</g>
		<g id="shape4-15" v:mID="4" v:groupContext="shape" transform="translate(179.247,-177.214)">
			<title>七边形.4</title>
			<v:userDefs>
				<v:ud v:nameU="visVersion" v:val="VT0(15):26"/>
			</v:userDefs>
			<path d="M41.29 388.44 L57.42 368.21 L51.66 342.98 L28.35 331.75 L5.03 342.98 L-0.73 368.21 L15.41 388.44 L41.29 388.44
						 Z" class="st5"/>
		</g>
		<g id="shape7-17" v:mID="7" v:groupContext="shape" transform="translate(186.558,-352.608)">
			<title>矩形</title>
			<desc>安全性</desc>
			<v:userDefs>
				<v:ud v:nameU="visVersion" v:val="VT0(15):26"/>
			</v:userDefs>
			<v:textBlock v:margins="rect(4,4,4,4)" v:tabSpace="42.5197"/>
			<v:textRect cx="21.0361" cy="379.585" width="42.08" height="17.7146"/>
			<rect x="0" y="370.728" width="42.0721" height="17.7146" class="st1"/>
			<text x="5.98" y="382.59" class="st2" v:langID="2052"><v:paragraph v:horizAlign="1"/><v:tabList/>安全性</text>		</g>
		<g id="shape8-20" v:mID="8" v:groupContext="shape" transform="translate(323.068,-290.599)">
			<title>矩形.8</title>
			<desc>鲁棒性</desc>
			<v:userDefs>
				<v:ud v:nameU="visVersion" v:val="VT0(15):26"/>
			</v:userDefs>
			<v:textBlock v:margins="rect(4,4,4,4)" v:tabSpace="42.5197"/>
			<v:textRect cx="21.0361" cy="379.585" width="42.08" height="17.7146"/>
			<rect x="0" y="370.728" width="42.0721" height="17.7146" class="st1"/>
			<text x="5.98" y="382.59" class="st2" v:langID="2052"><v:paragraph v:horizAlign="1"/><v:tabList/>鲁棒性</text>		</g>
		<g id="shape9-23" v:mID="9" v:groupContext="shape" transform="translate(358.277,-154.183)">
			<title>矩形.9</title>
			<desc>实用性</desc>
			<v:userDefs>
				<v:ud v:nameU="visVersion" v:val="VT0(15):26"/>
			</v:userDefs>
			<v:textBlock v:margins="rect(4,4,4,4)" v:tabSpace="42.5197"/>
			<v:textRect cx="21.0361" cy="379.585" width="42.08" height="17.7146"/>
			<rect x="0" y="370.728" width="42.0721" height="17.7146" class="st1"/>
			<text x="5.98" y="382.59" class="st2" v:langID="2052"><v:paragraph v:horizAlign="1"/><v:tabList/>实用性</text>		</g>
		<g id="shape12-26" v:mID="12" v:groupContext="shape" transform="translate(18.12,-154.183)">
			<title>矩形.12</title>
			<desc>便捷性</desc>
			<v:userDefs>
				<v:ud v:nameU="visVersion" v:val="VT0(15):26"/>
			</v:userDefs>
			<v:textBlock v:margins="rect(4,4,4,4)" v:tabSpace="42.5197"/>
			<v:textRect cx="21.0361" cy="379.585" width="42.08" height="17.7146"/>
			<rect x="0" y="370.728" width="42.0721" height="17.7146" class="st1"/>
			<text x="5.98" y="382.59" class="st2" v:langID="2052"><v:paragraph v:horizAlign="1"/><v:tabList/>便捷性</text>		</g>
		<g id="shape13-29" v:mID="13" v:groupContext="shape" transform="translate(46.914,-290.599)">
			<title>矩形.13</title>
			<desc>扩展性</desc>
			<v:userDefs>
				<v:ud v:nameU="visVersion" v:val="VT0(15):26"/>
			</v:userDefs>
			<v:textBlock v:margins="rect(4,4,4,4)" v:tabSpace="42.5197"/>
			<v:textRect cx="21.0361" cy="379.585" width="42.08" height="17.7146"/>
			<rect x="0" y="370.728" width="42.0721" height="17.7146" class="st1"/>
			<text x="5.98" y="382.59" class="st2" v:langID="2052"><v:paragraph v:horizAlign="1"/><v:tabList/>扩展性</text>		</g>
		<g id="shape15-32" v:mID="15" v:groupContext="shape" transform="translate(323.439,-213.937) rotate(36.7525)">
			<title>工作表.15</title>
			<path d="M0 388.44 L145.51 388.44" class="st6"/>
		</g>
		<g id="shape16-35" v:mID="16" v:groupContext="shape" transform="translate(62.2165,-63.8277)">
			<title>工作表.16</title>
			<path d="M0 287.28 L145.38 248.19 L80.68 388.44" class="st6"/>
		</g>
		<g id="shape17-38" v:mID="17" v:groupContext="shape" transform="translate(-80.4307,487.324) rotate(-114.764)">
			<title>工作表.17</title>
			<path d="M0 388.44 L154.46 388.44" class="st6"/>
		</g>
		<g id="shape18-41" v:mID="18" v:groupContext="shape" transform="translate(252.11,598.568) rotate(-164.95)">
			<title>工作表.18</title>
			<path d="M0 388.44 L150.54 388.44" class="st6"/>
		</g>
		<g id="shape19-44" v:mID="19" v:groupContext="shape" transform="translate(556.606,408.525) rotate(143.247)">
			<title>工作表.19</title>
			<path d="M0 388.44 L145.51 388.44" class="st6"/>
		</g>
		<g id="shape20-47" v:mID="20" v:groupContext="shape" transform="translate(596.036,41.1505) rotate(90)">
			<title>工作表.20</title>
			<path d="M0 388.44 L143.21 388.44" class="st6"/>
		</g>
		<g id="shape23-50" v:mID="23" v:groupContext="shape" transform="translate(62.2165,-73.4026)">
			<title>工作表.23</title>
			<path d="M40.2 179.21 L145.38 128.73 L249.96 179.66 L283.11 294.79 L205.66 388.44 L90.27 377.23 L0 296.85 L40.2 179.21
						 Z" class="st7"/>
		</g>
		<g id="shape24-52" v:mID="24" v:groupContext="shape" transform="translate(113.322,-79.7894)">
			<title>工作表.24</title>
			<path d="M1.01 194.2 L94.27 149.29 L192.74 190.61 L210.57 295.12 L151.61 388.44 L42.51 376.06 L0 289.5 L1.01 194.2 Z"
					class="st8"/>
		</g>
		<g id="shape25-54" v:mID="25" v:groupContext="shape" transform="translate(106.313,-76.7855)">
			<title>工作表.25</title>
			<path d="M3.98 188.48 L101.28 146.28 L194.55 191.2 L217.58 292.12 L145.61 357.24 L42.56 388.44 L0 288.38 L3.98 188.48
						 Z" class="st9"/>
		</g>
		<g id="shape26-56" v:mID="26" v:groupContext="shape" transform="translate(59.2224,-18.12)">
			<title>矩形.26</title>
			<desc>本作品 国内主流产品 国外主流产品</desc>
			<v:userDefs>
				<v:ud v:nameU="visVersion" v:val="VT0(15):26"/>
			</v:userDefs>
			<v:textBlock v:margins="rect(4,4,4,4)" v:tabSpace="42.5197"/>
			<v:textRect cx="162.992" cy="379.585" width="325.99" height="17.7146"/>
			<rect x="0" y="370.728" width="325.984" height="17.7146" class="st1"/>
			<text x="59.98" y="382.59" class="st2" v:langID="2052"><v:paragraph v:horizAlign="1"/><v:tabList/>本作品         国内主流产品        国外主流产品</text>		</g>
		<g id="shape28-59" v:mID="28" v:groupContext="shape" transform="translate(86.1515,-26.9773)">
			<title>工作表.28</title>
			<path d="M0 388.44 L28.35 388.44" class="st10"/>
		</g>
		<g id="shape29-62" v:mID="29" v:groupContext="shape" transform="translate(159.852,-26.9773)">
			<title>工作表.29</title>
			<path d="M0 388.44 L28.35 388.44" class="st11"/>
		</g>
		<g id="shape30-65" v:mID="30" v:groupContext="shape" transform="translate(261.9,-26.9773)">
			<title>工作表.30</title>
			<path d="M0 388.44 L28.35 388.44" class="st12"/>
		</g>
	</g>
</svg>
