<svg xmlns="http://www.w3.org/2000/svg" xmlns:xlink="http://www.w3.org/1999/xlink" viewBox="0 0 915.73 537.14"><defs><style>.cls-1,.cls-11,.cls-20,.cls-4,.cls-42{fill:#2b73d2;}.cls-2,.cls-7{fill:#4089e9;}.cls-2,.cls-4,.cls-41,.cls-5{stroke:#fff;}.cls-2,.cls-4,.cls-41,.cls-5,.cls-6{stroke-miterlimit:10;}.cls-2,.cls-4,.cls-5,.cls-6{stroke-width:1.19px;}.cls-3{font-size:8.36px;}.cls-10,.cls-3,.cls-44{fill:#fff;}.cls-11,.cls-20,.cls-3,.cls-42,.cls-44{font-family:Gilroy-Bold, Gilroy-Bold;}.cls-5{fill:#f7f7f7;}.cls-41,.cls-6{fill:none;}.cls-6{stroke:#f2f2f2;}.cls-8{fill:#71a9f5;}.cls-9{fill:url(#未命名的渐变_51);}.cls-11{font-size:15.53px;}.cls-12{letter-spacing:-0.07em;}.cls-13{letter-spacing:0em;}.cls-14{letter-spacing:-0.02em;}.cls-15{letter-spacing:-0.01em;}.cls-16{letter-spacing:-0.02em;}.cls-17{letter-spacing:-0.02em;}.cls-18{letter-spacing:-0.01em;}.cls-19{letter-spacing:-0.02em;}.cls-20,.cls-42,.cls-44{font-size:11.95px;}.cls-21{letter-spacing:-0.01em;}.cls-22{letter-spacing:-0.01em;}.cls-23{letter-spacing:0em;}.cls-24{letter-spacing:0em;}.cls-25{letter-spacing:-0.01em;}.cls-26{letter-spacing:-0.03em;}.cls-27{letter-spacing:-0.01em;}.cls-28{letter-spacing:-0.01em;}.cls-29{letter-spacing:-0.01em;}.cls-30{letter-spacing:-0.02em;}.cls-31{letter-spacing:0em;}.cls-32{letter-spacing:-0.02em;}.cls-33{letter-spacing:-0.02em;}.cls-34{letter-spacing:-0.01em;}.cls-35{letter-spacing:0.02em;}.cls-36{letter-spacing:-0.06em;}.cls-37{letter-spacing:-0.04em;}.cls-38{letter-spacing:-0.01em;}.cls-39{letter-spacing:-0.02em;}.cls-40{fill:#e6e6e6;}.cls-41{stroke-width:0.3px;}.cls-42{letter-spacing:-0.09em;}.cls-43{letter-spacing:0em;}.cls-45{letter-spacing:-0.02em;}.cls-46{letter-spacing:-0.02em;}</style><linearGradient id="未命名的渐变_51" x1="594.74" y1="470.11" x2="870.46" y2="470.11" gradientUnits="userSpaceOnUse"><stop offset="0" stop-color="#2b73d2"/><stop offset="1" stop-color="#71a9f5"/></linearGradient></defs><title>资源 55</title><g id="图层_2" data-name="图层 2"><g id="图层_1-2" data-name="图层 1"><rect class="cls-1" width="915.73" height="537.14"/><rect class="cls-2" x="43.31" y="38.25" width="275.72" height="230.33"/><text class="cls-3" transform="translate(265.95 201.81)">X</text><text class="cls-3" transform="translate(249.77 216.27)">X</text><text class="cls-3" transform="translate(265.95 257.14)">Y</text><rect class="cls-4" x="319.03" y="38.25" width="275.72" height="230.33"/><rect class="cls-5" x="594.74" y="38.25" width="275.72" height="230.33"/><rect class="cls-5" x="43.31" y="268.57" width="275.72" height="230.33"/><rect class="cls-6" x="594.74" y="268.57" width="275.72" height="230.33"/><rect class="cls-1" x="594.74" y="268.57" width="275.72" height="57.58"/><rect class="cls-7" x="594.74" y="326.15" width="275.72" height="57.58"/><rect class="cls-8" x="594.74" y="383.74" width="275.72" height="57.58"/><rect class="cls-9" x="594.74" y="441.32" width="275.72" height="57.58"/><path class="cls-10" d="M691.71,305.91h-5.27L678.15,295v10.87h-4.58V282.7h4.58v10.23l8-10.23h5.27L682.79,294Z"/><path class="cls-10" d="M695.89,299.38q.86,3.12,4.68,3.12a4.39,4.39,0,0,0,3.71-1.66l3.45,2a8.23,8.23,0,0,1-7.23,3.55,8.92,8.92,0,0,1-6.6-2.49,9.15,9.15,0,0,1,0-12.52,8.41,8.41,0,0,1,6.3-2.5,7.91,7.91,0,0,1,6,2.52,8.75,8.75,0,0,1,2.37,6.23,10.06,10.06,0,0,1-.17,1.76Zm-.07-3.32h8.46a4,4,0,0,0-1.51-2.52,4.33,4.33,0,0,0-2.6-.83,4.53,4.53,0,0,0-2.85.88A4.22,4.22,0,0,0,695.82,296.06Z"/><path class="cls-10" d="M721.69,289.33h4.58l-6,16.61a10.85,10.85,0,0,1-3.43,5.16,7.81,7.81,0,0,1-5.31,1.45v-4a4.27,4.27,0,0,0,2.73-.73,5.09,5.09,0,0,0,1.61-2.46L709,289.33h4.68L718,300.48Z"/><path class="cls-10" d="M735.52,306.38A8.76,8.76,0,1,1,739.93,290a7.68,7.68,0,0,1,3,3.12l-3.68,2.15a3.75,3.75,0,0,0-1.51-1.62,4.38,4.38,0,0,0-2.27-.6,4.26,4.26,0,0,0-3.19,1.28,4.82,4.82,0,0,0,0,6.5,4.29,4.29,0,0,0,3.19,1.27,4.49,4.49,0,0,0,2.3-.58,3.56,3.56,0,0,0,1.51-1.61l3.72,2.13a8.29,8.29,0,0,1-3.09,3.13A8.54,8.54,0,0,1,735.52,306.38Z"/><path class="cls-10" d="M749.68,292.18a4.49,4.49,0,0,1,2-2.38,6,6,0,0,1,3.07-.8v4.77a5.1,5.1,0,0,0-3.5.8,3.82,3.82,0,0,0-1.54,3.42v7.92H745.4V289.33h4.28Z"/><path class="cls-10" d="M768.16,289.33h4.27v16.58h-4.27v-1.85a5.55,5.55,0,0,1-4.95,2.32,6,6,0,0,1-4.49-1.83,6.91,6.91,0,0,1-1.77-5V289.33h4.27V299a3.39,3.39,0,0,0,.9,2.54,3.25,3.25,0,0,0,2.39.88,3.5,3.5,0,0,0,2.65-1,4.29,4.29,0,0,0,1-3.08Z"/><path class="cls-10" d="M791.63,305.91h-4.94l-3.59-5-3.6,5h-5l6.08-8.46-5.81-8.12h4.94l3.35,4.67,3.35-4.67h4.91l-5.8,8.11Z"/><path class="cls-10" d="M691.71,363.49h-5.27l-8.29-10.87v10.87h-4.58V340.28h4.58v10.23l8-10.23h5.27l-8.59,11.27Z"/><path class="cls-10" d="M695.89,357q.86,3.12,4.68,3.12a4.36,4.36,0,0,0,3.71-1.66l3.45,2A8.23,8.23,0,0,1,700.5,364a8.92,8.92,0,0,1-6.6-2.49,9.15,9.15,0,0,1,0-12.52,8.41,8.41,0,0,1,6.3-2.5,7.91,7.91,0,0,1,6,2.52,8.75,8.75,0,0,1,2.37,6.23,10.06,10.06,0,0,1-.17,1.76Zm-.07-3.32h8.46a4,4,0,0,0-1.51-2.52,4.33,4.33,0,0,0-2.6-.82,4.52,4.52,0,0,0-2.85.87A4.22,4.22,0,0,0,695.82,353.64Z"/><path class="cls-10" d="M721.69,346.91h4.58l-6,16.61a10.85,10.85,0,0,1-3.43,5.16,7.81,7.81,0,0,1-5.31,1.45v-4a4.27,4.27,0,0,0,2.73-.73,5.09,5.09,0,0,0,1.61-2.46l-6.8-16h4.68L718,358.06Z"/><path class="cls-10" d="M735.52,364a8.76,8.76,0,1,1,0-17.51,8.62,8.62,0,0,1,4.41,1.16,7.68,7.68,0,0,1,3,3.12l-3.68,2.15a3.75,3.75,0,0,0-1.51-1.62,4.38,4.38,0,0,0-2.27-.6,4.3,4.3,0,0,0-3.19,1.28,4.82,4.82,0,0,0,0,6.5,4.29,4.29,0,0,0,3.19,1.27,4.49,4.49,0,0,0,2.3-.58,3.59,3.59,0,0,0,1.51-1.6l3.72,2.12a8.29,8.29,0,0,1-3.09,3.13A8.44,8.44,0,0,1,735.52,364Z"/><path class="cls-10" d="M749.68,349.76a4.49,4.49,0,0,1,2-2.38,6.06,6.06,0,0,1,3.07-.8v4.78a5,5,0,0,0-3.5.79,3.83,3.83,0,0,0-1.54,3.42v7.92H745.4V346.91h4.28Z"/><path class="cls-10" d="M768.16,346.91h4.27v16.58h-4.27v-1.85a5.53,5.53,0,0,1-4.95,2.32,6,6,0,0,1-4.49-1.83,6.91,6.91,0,0,1-1.77-5V346.91h4.27v9.65a3.39,3.39,0,0,0,.9,2.54,3.25,3.25,0,0,0,2.39.88,3.5,3.5,0,0,0,2.65-1,4.27,4.27,0,0,0,1-3.08Z"/><path class="cls-10" d="M791.63,363.49h-4.94l-3.59-5-3.6,5h-5l6.08-8.46-5.81-8.12h4.94l3.35,4.67,3.35-4.67h4.91l-5.8,8.11Z"/><path class="cls-10" d="M691.71,421.08h-5.27l-8.29-10.88v10.88h-4.58V397.86h4.58v10.23l8-10.23h5.27l-8.59,11.28Z"/><path class="cls-10" d="M695.89,414.54q.86,3.12,4.68,3.12a4.36,4.36,0,0,0,3.71-1.66l3.45,2a8.23,8.23,0,0,1-7.23,3.55,8.92,8.92,0,0,1-6.6-2.49,8.49,8.49,0,0,1-2.49-6.27,8.57,8.57,0,0,1,2.46-6.25,8.41,8.41,0,0,1,6.3-2.5,7.91,7.91,0,0,1,6,2.52,8.75,8.75,0,0,1,2.37,6.23,10.06,10.06,0,0,1-.17,1.76Zm-.07-3.31h8.46a4,4,0,0,0-1.51-2.52,4.27,4.27,0,0,0-2.6-.83,4.47,4.47,0,0,0-2.85.88A4.16,4.16,0,0,0,695.82,411.23Z"/><path class="cls-10" d="M721.69,404.49h4.58l-6,16.61a10.85,10.85,0,0,1-3.43,5.16,7.81,7.81,0,0,1-5.31,1.45v-4a4.27,4.27,0,0,0,2.73-.73,5.1,5.1,0,0,0,1.61-2.45L709,404.49h4.68L718,415.64Z"/><path class="cls-10" d="M735.52,421.54a8.76,8.76,0,1,1,0-17.51,8.62,8.62,0,0,1,4.41,1.16,7.68,7.68,0,0,1,3,3.12l-3.68,2.15a3.8,3.8,0,0,0-1.51-1.62,4.38,4.38,0,0,0-2.27-.6,4.3,4.3,0,0,0-3.19,1.28,4.82,4.82,0,0,0,0,6.5,4.3,4.3,0,0,0,3.19,1.28,4.5,4.5,0,0,0,2.3-.59,3.59,3.59,0,0,0,1.51-1.6l3.72,2.12a8.29,8.29,0,0,1-3.09,3.13A8.44,8.44,0,0,1,735.52,421.54Z"/><path class="cls-10" d="M749.68,407.35a4.47,4.47,0,0,1,2-2.39,6.06,6.06,0,0,1,3.07-.8v4.78a5,5,0,0,0-3.5.79,3.83,3.83,0,0,0-1.54,3.42v7.93H745.4V404.49h4.28Z"/><path class="cls-10" d="M768.16,404.49h4.27v16.59h-4.27v-1.86a5.53,5.53,0,0,1-4.95,2.32,6,6,0,0,1-4.49-1.82,6.94,6.94,0,0,1-1.77-5V404.49h4.27v9.65a3.38,3.38,0,0,0,.9,2.54,3.25,3.25,0,0,0,2.39.88,3.5,3.5,0,0,0,2.65-1,4.27,4.27,0,0,0,1-3.08Z"/><path class="cls-10" d="M791.63,421.08h-4.94l-3.59-5-3.6,5h-5l6.08-8.47-5.81-8.12h4.94l3.35,4.68,3.35-4.68h4.91l-5.8,8.11Z"/><path class="cls-10" d="M691.71,478.66h-5.27l-8.29-10.88v10.88h-4.58V455.44h4.58v10.23l8-10.23h5.27l-8.59,11.28Z"/><path class="cls-10" d="M695.89,472.12q.86,3.12,4.68,3.12a4.36,4.36,0,0,0,3.71-1.66l3.45,2a8.23,8.23,0,0,1-7.23,3.55,8.92,8.92,0,0,1-6.6-2.49,8.46,8.46,0,0,1-2.49-6.26,8.58,8.58,0,0,1,2.46-6.26,8.45,8.45,0,0,1,6.3-2.5,7.91,7.91,0,0,1,6,2.52,8.76,8.76,0,0,1,2.37,6.24,10,10,0,0,1-.17,1.75Zm-.07-3.31h8.46a4,4,0,0,0-1.51-2.52,4.27,4.27,0,0,0-2.6-.83,4.47,4.47,0,0,0-2.85.88A4.19,4.19,0,0,0,695.82,468.81Z"/><path class="cls-10" d="M721.69,462.07h4.58l-6,16.61a10.93,10.93,0,0,1-3.43,5.17,7.86,7.86,0,0,1-5.31,1.44v-4a4.27,4.27,0,0,0,2.73-.73,5.1,5.1,0,0,0,1.61-2.45L709,462.07h4.68L718,473.22Z"/><path class="cls-10" d="M735.52,479.12a8.76,8.76,0,1,1,0-17.51,8.62,8.62,0,0,1,4.41,1.16,7.74,7.74,0,0,1,3,3.12L739.27,468a3.8,3.8,0,0,0-1.51-1.62,4.38,4.38,0,0,0-2.27-.6,4.3,4.3,0,0,0-3.19,1.28,4.46,4.46,0,0,0-1.26,3.27,4.41,4.41,0,0,0,1.26,3.23,4.3,4.3,0,0,0,3.19,1.28,4.59,4.59,0,0,0,2.3-.58,3.66,3.66,0,0,0,1.51-1.61l3.72,2.12a8.22,8.22,0,0,1-3.09,3.13A8.44,8.44,0,0,1,735.52,479.12Z"/><path class="cls-10" d="M749.68,464.93a4.51,4.51,0,0,1,2-2.39,6.06,6.06,0,0,1,3.07-.8v4.78a5,5,0,0,0-3.5.79,3.83,3.83,0,0,0-1.54,3.42v7.93H745.4V462.07h4.28Z"/><path class="cls-10" d="M768.16,462.07h4.27v16.59h-4.27V476.8a5.53,5.53,0,0,1-4.95,2.32,6,6,0,0,1-4.49-1.82,6.94,6.94,0,0,1-1.77-5V462.07h4.27v9.66a3.37,3.37,0,0,0,.9,2.53,3.25,3.25,0,0,0,2.39.88,3.5,3.5,0,0,0,2.65-1,4.27,4.27,0,0,0,1-3.08Z"/><path class="cls-10" d="M791.63,478.66h-4.94l-3.59-5-3.6,5h-5l6.08-8.47-5.81-8.12h4.94l3.35,4.68,3.35-4.68h4.91l-5.8,8.11Z"/><text class="cls-11" transform="translate(82.33 400.87)"><tspan class="cls-12">T</tspan><tspan class="cls-13" x="7.28" y="0">ypog</tspan><tspan class="cls-14" x="44.11" y="0">r</tspan><tspan x="49.34" y="0">ap</tspan><tspan class="cls-15" x="68.78" y="0">h</tspan><tspan x="77.57" y="0">y: Gil</tspan><tspan class="cls-16" x="113.63" y="0">r</tspan><tspan class="cls-17" x="118.87" y="0">o</tspan><tspan x="127.78" y="0">y</tspan></text><text class="cls-11" transform="translate(621.86 69.88)">App <tspan class="cls-18" x="33.7" y="0">L</tspan><tspan x="41.05" y="0">og</tspan><tspan class="cls-19" x="59.99" y="0">o</tspan><tspan x="68.91" y="0">:</tspan></text><text class="cls-20" transform="translate(82.33 426.88)">AB<tspan class="cls-21" x="15.21" y="0">C</tspan><tspan x="23.79" y="0">DEFGH</tspan><tspan class="cls-22" x="62.16" y="0">I</tspan><tspan class="cls-23" x="65.26" y="0">JKLMNO</tspan><tspan class="cls-24" x="112.42" y="0">P</tspan><tspan class="cls-23" x="119.4" y="0">Q</tspan><tspan class="cls-25" x="128.92" y="0">R</tspan><tspan class="cls-26" x="136.13" y="0">S</tspan><tspan x="142.79" y="0">TUVWX</tspan><tspan class="cls-27" x="184" y="0">Y</tspan><tspan x="191.29" y="0">Z</tspan><tspan x="0" y="14.34">ab</tspan><tspan class="cls-28" x="14.96" y="14.34">c</tspan><tspan x="21.22" y="14.34">d</tspan><tspan class="cls-29" x="28.7" y="14.34">e</tspan><tspan class="cls-30" x="35.46" y="14.34">f</tspan><tspan x="39.15" y="14.34">gh</tspan><tspan class="cls-27" x="53.52" y="14.34">i</tspan><tspan class="cls-31" x="56.34" y="14.34">jklmnopq</tspan><tspan class="cls-32" x="107.84" y="14.34">r</tspan><tspan class="cls-33" x="111.9" y="14.34">s</tspan><tspan x="117.22" y="14.34">tuvwx</tspan><tspan class="cls-25" x="150.55" y="14.34">y</tspan><tspan x="156.69" y="14.34">z</tspan><tspan x="0" y="28.67">1</tspan><tspan class="cls-34" x="4.62" y="28.67">2</tspan><tspan class="cls-35" x="10.85" y="28.67">3</tspan><tspan x="17.6" y="28.67">45</tspan><tspan class="cls-36" x="31.07" y="28.67">6</tspan><tspan class="cls-37" x="36.96" y="28.67">7</tspan><tspan x="42.34" y="28.67">890!@#$%</tspan></text><path class="cls-1" d="M108.59,344.05H101L89,328.31v15.74H82.33v-33.6H89v14.81l11.52-14.81h7.63L95.68,326.77Z"/><path class="cls-1" d="M114.64,334.6q1.24,4.51,6.77,4.51a6.32,6.32,0,0,0,5.37-2.4l5,2.88q-3.56,5.15-10.47,5.14a12.9,12.9,0,0,1-9.55-3.6,12.67,12.67,0,0,1,9.07-21.75,11.44,11.44,0,0,1,8.71,3.65,12.66,12.66,0,0,1,3.44,9,14.6,14.6,0,0,1-.24,2.55Zm-.1-4.8h12.24a5.82,5.82,0,0,0-2.18-3.65,6.27,6.27,0,0,0-3.77-1.2,6.52,6.52,0,0,0-4.13,1.27A6.06,6.06,0,0,0,114.54,329.8Z"/><path class="cls-1" d="M152,320.05h6.63l-8.75,24a15.83,15.83,0,0,1-5,7.47,11.33,11.33,0,0,1-7.69,2.09v-5.76a6.22,6.22,0,0,0,4-1.05,7.47,7.47,0,0,0,2.33-3.55l-9.84-23.24h6.77l6.25,16.13Z"/><path class="cls-1" d="M172,344.73a12.68,12.68,0,1,1,0-25.35,12.39,12.39,0,0,1,6.38,1.68,11.21,11.21,0,0,1,4.37,4.51l-5.33,3.12a5.43,5.43,0,0,0-2.18-2.35,6.41,6.41,0,0,0-3.29-.86,6.19,6.19,0,0,0-4.61,1.85,7,7,0,0,0,0,9.4,6.19,6.19,0,0,0,4.61,1.85,6.6,6.6,0,0,0,3.34-.84,5.28,5.28,0,0,0,2.18-2.33l5.38,3.08a12.07,12.07,0,0,1-4.47,4.53A12.22,12.22,0,0,1,172,344.73Z"/><path class="cls-1" d="M192.5,324.18a6.44,6.44,0,0,1,2.85-3.45,8.7,8.7,0,0,1,4.44-1.16v6.92a7.27,7.27,0,0,0-5.06,1.15q-2.23,1.49-2.23,4.94v11.47h-6.2v-24h6.2Z"/><path class="cls-1" d="M219.24,320.05h6.19v24h-6.19v-2.68c-1.51,2.24-3.89,3.36-7.16,3.36a8.68,8.68,0,0,1-6.5-2.64,10,10,0,0,1-2.57-7.3V320.05h6.19v14a4.88,4.88,0,0,0,1.3,3.67A4.7,4.7,0,0,0,214,339a5.14,5.14,0,0,0,3.84-1.49,6.24,6.24,0,0,0,1.44-4.47Z"/><path class="cls-1" d="M253.22,344.05h-7.15l-5.21-7.27-5.21,7.27H228.5l8.8-12.25-8.42-11.75H236l4.84,6.76,4.85-6.76h7.11l-8.4,11.74Z"/><path class="cls-1" d="M262.85,320.11a5.94,5.94,0,1,1,5.94-5.93A5.94,5.94,0,0,1,262.85,320.11Zm0-10.79a4.86,4.86,0,1,0,4.86,4.86A4.86,4.86,0,0,0,262.85,309.32Z"/><path class="cls-1" d="M262.85,314.76h-1.66V311.7h1.66a1.54,1.54,0,1,1,0,3.06Zm-.49-1.17h.49c.41,0,.5-.2.5-.36s-.09-.36-.5-.36h-.49Z"/><path class="cls-1" d="M263.93,316.61a.54.54,0,0,1-.44-.23l-1.18-1.65v1.34a.54.54,0,0,1-.54.54.55.55,0,0,1-.54-.54v-3.78a.54.54,0,0,1,.54-.54h1.08a1.49,1.49,0,0,1,1.62,1.48,1.43,1.43,0,0,1-.93,1.36l.83,1.16a.53.53,0,0,1-.12.75A.56.56,0,0,1,263.93,316.61Zm-1.34-3h.26c.47,0,.54-.26.54-.41s-.07-.4-.54-.4h-.54v.81h.28Z"/><rect class="cls-5" x="319.03" y="268.57" width="275.72" height="230.33"/><text class="cls-11" transform="translate(358.05 305.03)"><tspan class="cls-38">C</tspan><tspan class="cls-13" x="11.2" y="0">olo</tspan><tspan class="cls-39" x="33.48" y="0">r</tspan><tspan class="cls-15" x="38.76" y="0">s</tspan><tspan x="45.81" y="0">:</tspan></text><path class="cls-40" d="M127.37,249.66h-6.93l-10.91-14.31v14.31h-6V219.12h6v13.45L120,219.12h6.94L115.64,234Z"/><path class="cls-40" d="M132.87,241.06c.76,2.74,2.81,4.1,6.15,4.1a5.73,5.73,0,0,0,4.89-2.18l4.54,2.62q-3.22,4.67-9.51,4.67a11.77,11.77,0,0,1-8.69-3.27,11.52,11.52,0,0,1,8.25-19.77,10.41,10.41,0,0,1,7.92,3.32,11.5,11.5,0,0,1,3.12,8.2,12.68,12.68,0,0,1-.22,2.31Zm-.09-4.36h11.13a5.28,5.28,0,0,0-2-3.32,5.71,5.71,0,0,0-3.42-1.09,5.93,5.93,0,0,0-3.75,1.16A5.51,5.51,0,0,0,132.78,236.7Z"/><path class="cls-40" d="M166.82,227.84h6l-8,21.85a14.28,14.28,0,0,1-4.51,6.79,10.26,10.26,0,0,1-7,1.9v-5.23a5.65,5.65,0,0,0,3.6-1,6.75,6.75,0,0,0,2.11-3.23l-8.94-21.12h6.15L162,242.5Z"/><path class="cls-40" d="M185,250.27a11.52,11.52,0,1,1,0-23,11.27,11.27,0,0,1,5.8,1.53,10.19,10.19,0,0,1,4,4.1l-4.85,2.84a4.87,4.87,0,0,0-2-2.14,5.74,5.74,0,0,0-3-.79,5.63,5.63,0,0,0-4.19,1.68,5.84,5.84,0,0,0-1.66,4.3,5.77,5.77,0,0,0,1.66,4.25,5.63,5.63,0,0,0,4.19,1.68,6,6,0,0,0,3-.76,4.8,4.8,0,0,0,2-2.12l4.88,2.8a10.92,10.92,0,0,1-4.06,4.12A11.19,11.19,0,0,1,185,250.27Z"/><path class="cls-40" d="M203.64,231.59a5.93,5.93,0,0,1,2.6-3.14,7.86,7.86,0,0,1,4-1v6.28a6.6,6.6,0,0,0-4.6,1.05,5,5,0,0,0-2,4.49v10.43H198V227.84h5.63Z"/><path class="cls-40" d="M228,227.84h5.62v21.82H228v-2.45q-2.05,3.06-6.51,3.06a7.91,7.91,0,0,1-5.91-2.4,9.13,9.13,0,0,1-2.33-6.63v-13.4h5.63v12.7a4.5,4.5,0,0,0,1.17,3.34,4.32,4.32,0,0,0,3.15,1.15,4.66,4.66,0,0,0,3.49-1.35,5.63,5.63,0,0,0,1.31-4.06Z"/><path class="cls-40" d="M258.84,249.66h-6.51l-4.73-6.61-4.73,6.61h-6.5l8-11.14-7.65-10.68h6.51l4.4,6.15,4.41-6.15h6.46l-7.64,10.67Z"/><line class="cls-41" x1="43.31" y1="48.94" x2="319.03" y2="48.94"/><line class="cls-41" x1="43.31" y1="66.23" x2="319.03" y2="66.23"/><line class="cls-41" x1="43.31" y1="78.92" x2="319.03" y2="78.92"/><line class="cls-41" x1="43.31" y1="61.64" x2="319.03" y2="61.64"/><line class="cls-41" x1="43.15" y1="87.47" x2="318.86" y2="87.47"/><line class="cls-41" x1="43.15" y1="104.87" x2="318.86" y2="104.87"/><line class="cls-41" x1="43.31" y1="123.54" x2="319.03" y2="123.54"/><line class="cls-41" x1="43.31" y1="138.73" x2="319.03" y2="138.73"/><line class="cls-41" x1="43.31" y1="147.37" x2="319.03" y2="147.37"/><line class="cls-41" x1="43.31" y1="156.01" x2="319.03" y2="156.01"/><line class="cls-41" x1="43.31" y1="171.33" x2="319.03" y2="171.33"/><line class="cls-41" x1="43.31" y1="189.88" x2="319.03" y2="189.88"/><line class="cls-41" x1="43.31" y1="207.17" x2="319.03" y2="207.17"/><line class="cls-41" x1="43.31" y1="219.12" x2="319.03" y2="219.12"/><line class="cls-41" x1="43.31" y1="258.4" x2="319.03" y2="258.4"/><line class="cls-41" x1="43.31" y1="249.65" x2="319.03" y2="249.65"/><line class="cls-41" x1="108.86" y1="38.25" x2="108.86" y2="268.57"/><line class="cls-41" x1="179.08" y1="38.25" x2="179.08" y2="268.57"/><line class="cls-41" x1="196.37" y1="38.25" x2="196.37" y2="268.57"/><line class="cls-41" x1="209.59" y1="38.25" x2="209.59" y2="268.57"/><line class="cls-41" x1="221.07" y1="38.25" x2="221.07" y2="268.57"/><line class="cls-41" x1="238.36" y1="38.25" x2="238.36" y2="268.57"/><line class="cls-41" x1="226.87" y1="38.25" x2="226.87" y2="268.57"/><line class="cls-41" x1="243.9" y1="38.25" x2="243.9" y2="268.57"/><line class="cls-41" x1="261.19" y1="38.25" x2="261.19" y2="268.57"/><line class="cls-41" x1="91.57" y1="38.25" x2="91.57" y2="268.57"/><path class="cls-41" d="M98.3,95.89a.11.11,0,0,0,0,0v0S98.3,95.89,98.3,95.89Z"/><path class="cls-41" d="M99.55,94.39a.15.15,0,0,0-.08,0v0Z"/><path class="cls-41" d="M98.3,95.89a.11.11,0,0,0,0,0v0S98.3,95.89,98.3,95.89Z"/><path class="cls-41" d="M99.55,94.39a.15.15,0,0,0-.08,0v0Z"/><path class="cls-40" d="M268.82,123.31H254.5V96.22a2,2,0,0,0-1.95-2H225.87l-5-23.7a2,2,0,0,0-2.31-1.5l-20.77,4.42L190.06,56.2a2,2,0,0,0-2.58-1L99.55,94.39a.15.15,0,0,0-.08,0h0l0,0-.23.11a.85.85,0,0,0-.14.1.41.41,0,0,1-.13.1,1.31,1.31,0,0,0-.22.25,1.11,1.11,0,0,0-.17.27,1.22,1.22,0,0,0-.14.28h0s0,.06,0,.1a.15.15,0,0,0,0,.1.07.07,0,0,0,0,.06v.06a.11.11,0,0,0,0,0,1.42,1.42,0,0,0,0,.3V198.52a2,2,0,0,0,1.94,1.95H252.55a2,2,0,0,0,1.95-1.95V171.43h14.32a2,2,0,0,0,1.95-1.94V125.25A2,2,0,0,0,268.82,123.31Zm-46.94-29H118.74L197,77.63l20.42-4.34ZM187.3,59.57l6.56,14.73L117.92,90.46Zm63.31,108H198.55V127.2h52.06Zm0-44.23h-54a1.94,1.94,0,0,0-1.94,1.94v44.24a1.94,1.94,0,0,0,1.94,1.94h54v25.15H102.16V98.16H250.61Zm16.27,44.23H254.5V127.2h12.38Z"/><circle class="cls-40" cx="100.22" cy="96.21" r="8.64"/><circle class="cls-40" cx="218.23" cy="70.28" r="8.64"/><circle class="cls-40" cx="187.73" cy="57.59" r="8.64"/><circle class="cls-40" cx="252.54" cy="96.21" r="8.64"/><circle class="cls-40" cx="229.71" cy="147.37" r="8.64"/><circle class="cls-40" cx="100.22" cy="198.53" r="8.64"/><circle class="cls-40" cx="252.54" cy="198.53" r="8.64"/><rect class="cls-1" x="657.16" y="88.65" width="150.89" height="150.89" rx="28.24" ry="28.24"/><path class="cls-10" d="M788.28,161.07h-9.1v-17.2a1.25,1.25,0,0,0-1.24-1.24H761l-3.21-15.06a1.24,1.24,0,0,0-1.47-.95l-13.19,2.81-4.88-11a1.18,1.18,0,0,0-.69-.64,1.21,1.21,0,0,0-.95,0L680.76,142.7a.09.09,0,0,0,0,0h0l-.15.07s-.06,0-.08.07l-.09.06a1.07,1.07,0,0,0-.14.16.62.62,0,0,0-.11.17.49.49,0,0,0-.08.18h0a.11.11,0,0,0,0,.06s0,0,0,.06a.06.06,0,0,0,0,0h0v0s0,0,0,0a1.15,1.15,0,0,0,0,.19v65a1.25,1.25,0,0,0,1.24,1.24h96.76a1.25,1.25,0,0,0,1.24-1.24V191.64h9.1a1.23,1.23,0,0,0,1.23-1.23v-28.1A1.24,1.24,0,0,0,788.28,161.07Zm-29.82-18.44H693l49.71-10.57,13-2.76Zm-22-22,4.16,9.36-48.23,10.26Zm40.21,68.58H743.64V163.55h33.07Zm0-28.1H742.4a1.24,1.24,0,0,0-1.23,1.24v28.1a1.23,1.23,0,0,0,1.23,1.23h34.31v16h-94.3V145.1h94.3ZM787,189.17h-7.86V163.55H787Z"/><circle class="cls-10" cx="681.18" cy="143.86" r="5.49"/><circle class="cls-10" cx="756.14" cy="127.39" r="5.49"/><circle class="cls-10" cx="736.77" cy="119.33" r="5.49"/><circle class="cls-10" cx="777.94" cy="143.86" r="5.49"/><circle class="cls-10" cx="763.44" cy="176.36" r="5.49"/><circle class="cls-10" cx="681.18" cy="208.85" r="5.49"/><circle class="cls-10" cx="777.94" cy="208.85" r="5.49"/><text class="cls-42" transform="translate(431.34 465.42)">T<tspan class="cls-43" x="5.36" y="0">ec</tspan><tspan class="cls-31" x="18.61" y="0">h Blue</tspan></text><circle class="cls-8" cx="499.46" cy="385.39" r="59.24"/><circle class="cls-7" cx="456.89" cy="385.39" r="59.24"/><circle class="cls-1" cx="414.31" cy="385.39" r="59.24"/><text class="cls-44" transform="translate(394.17 388.9)">2<tspan class="cls-45" x="6.34" y="0">B</tspan><tspan class="cls-31" x="13.3" y="0">73</tspan><tspan class="cls-46" x="25.66" y="0">D</tspan><tspan x="33.94" y="0">2</tspan></text><path class="cls-10" d="M449.93,174H444l-9.33-12.23V174h-5.16V147.92h5.16v11.51l8.95-11.51h5.93l-9.66,12.69Z"/><path class="cls-10" d="M454.63,166.69q1,3.51,5.26,3.51a4.93,4.93,0,0,0,4.18-1.86l3.88,2.24a9.25,9.25,0,0,1-8.14,4,10.05,10.05,0,0,1-7.43-2.8,9.84,9.84,0,0,1,7.05-16.9,8.93,8.93,0,0,1,6.77,2.83,9.8,9.8,0,0,1,2.67,7,11.59,11.59,0,0,1-.19,2Zm-.07-3.74h9.52a4.44,4.44,0,0,0-1.7-2.83,4.83,4.83,0,0,0-2.92-.94,5.09,5.09,0,0,0-3.22,1A4.75,4.75,0,0,0,454.56,163Z"/><path class="cls-10" d="M483.68,155.37h5.15l-6.8,18.7a12.31,12.31,0,0,1-3.87,5.81,8.79,8.79,0,0,1-6,1.62V177a4.8,4.8,0,0,0,3.07-.82,5.72,5.72,0,0,0,1.81-2.76l-7.64-18.07h5.26l4.87,12.55Z"/><path class="cls-10" d="M499.24,174.56a9.47,9.47,0,0,1-7-2.83,10.16,10.16,0,0,1,0-14,9.47,9.47,0,0,1,7-2.83,9.74,9.74,0,0,1,5,1.31,8.76,8.76,0,0,1,3.4,3.51l-4.15,2.42a4.1,4.1,0,0,0-1.7-1.82,4.92,4.92,0,0,0-2.56-.67,4.78,4.78,0,0,0-3.58,1.45,5.43,5.43,0,0,0,0,7.3,4.85,4.85,0,0,0,3.58,1.44,5.1,5.1,0,0,0,2.6-.65,4.08,4.08,0,0,0,1.7-1.81l4.18,2.4a9.3,9.3,0,0,1-3.47,3.52A9.74,9.74,0,0,1,499.24,174.56Z"/><path class="cls-10" d="M515.17,158.58a5.08,5.08,0,0,1,2.22-2.69,6.79,6.79,0,0,1,3.46-.9v5.37a5.67,5.67,0,0,0-3.93.9,4.3,4.3,0,0,0-1.75,3.85V174h-4.81V155.37h4.81Z"/><path class="cls-10" d="M536,155.37h4.82V174H536v-2.1a6.2,6.2,0,0,1-5.56,2.62,6.72,6.72,0,0,1-5.06-2.06,7.76,7.76,0,0,1-2-5.67V155.37h4.81v10.86a3.87,3.87,0,0,0,1,2.86,3.67,3.67,0,0,0,2.69,1,3.9,3.9,0,0,0,3-1.16,4.8,4.8,0,0,0,1.12-3.47V155.37Z"/><path class="cls-10" d="M562.39,174h-5.57l-4.05-5.66L548.71,174h-5.56l6.84-9.53-6.54-9.13H549l3.77,5.26,3.77-5.26h5.52l-6.53,9.13Z"/><path class="cls-10" d="M415.19,151.7H410V142a.71.71,0,0,0-.7-.7h-9.61l-1.82-8.53a.7.7,0,0,0-.83-.54l-7.47,1.59-2.77-6.23a.69.69,0,0,0-.39-.36.68.68,0,0,0-.54,0l-31.65,14.1h-.05l-.09,0-.05,0-.05,0s-.06.05-.07.09a.23.23,0,0,0-.07.1.73.73,0,0,0-.05.09h0a0,0,0,0,1,0,0,.06.06,0,0,0,0,0v0h0s0,0,0,0v36.93a.7.7,0,0,0,.7.7h54.84a.71.71,0,0,0,.7-.7V169h5.15a.7.7,0,0,0,.7-.7V152.4A.7.7,0,0,0,415.19,151.7ZM398.3,141.25H361.17l28.17-6,7.35-1.56Zm-12.46-12.49,2.36,5.3-27.33,5.82Zm22.8,38.86H389.9V153.1h18.74Zm0-15.92H389.19a.7.7,0,0,0-.69.7v15.92a.69.69,0,0,0,.69.7h19.44v9H355.2V142.65h53.44Zm5.85,15.92H410V153.1h4.45Z"/><circle class="cls-10" cx="354.5" cy="141.95" r="3.11"/><circle class="cls-10" cx="396.98" cy="132.61" r="3.11"/><circle class="cls-10" cx="386" cy="128.04" r="3.11"/><circle class="cls-10" cx="409.33" cy="141.95" r="3.11"/><circle class="cls-10" cx="401.11" cy="160.36" r="3.11"/><circle class="cls-10" cx="354.5" cy="178.78" r="3.11"/><circle class="cls-10" cx="409.33" cy="178.78" r="3.11"/></g></g></svg>