<svg xmlns="http://www.w3.org/2000/svg" viewBox="0 0 656.93 553.44"><defs><style>.cls-1,.cls-42{fill:red;}.cls-10,.cls-2,.cls-4,.cls-49,.cls-6,.cls-9{fill:#878787;}.cls-3{font-size:21.76px;}.cls-12,.cls-3,.cls-63,.cls-73{fill:#fff;}.cls-3,.cls-42,.cls-44,.cls-51,.cls-6,.cls-63,.cls-75,.cls-77,.cls-78{font-family:Gilroy-Bold, Gilroy-Bold;}.cls-4,.cls-48,.cls-5{fill-rule:evenodd;}.cls-39,.cls-44,.cls-47,.cls-5,.cls-54,.cls-75,.cls-83{fill:#f2f2f2;}.cls-6{font-size:14.77px;}.cls-7{letter-spacing:-0.01em;}.cls-22,.cls-25,.cls-69,.cls-8{fill:#e6e6e6;}.cls-12,.cls-63,.cls-9{font-size:7.25px;}.cls-49,.cls-73,.cls-83,.cls-9{font-family:HYQiHei-FZS-GBpc-EUC-H, HYQiHei;}.cls-10,.cls-49,.cls-54,.cls-75{font-size:3.63px;}.cls-10,.cls-47{font-family:HYQiHei-EZS-GBpc-EUC-H, HYQiHei;}.cls-11,.cls-15,.cls-36,.cls-51,.cls-58,.cls-62,.cls-70,.cls-71,.cls-77,.cls-78,.cls-79{fill:gray;}.cls-11,.cls-14,.cls-15,.cls-16,.cls-17,.cls-18,.cls-19,.cls-20,.cls-21,.cls-36,.cls-37,.cls-43,.cls-53,.cls-55,.cls-56,.cls-57,.cls-58,.cls-59,.cls-60,.cls-62,.cls-67,.cls-68,.cls-70,.cls-71,.cls-74,.cls-87{stroke:#fff;}.cls-11,.cls-15,.cls-16,.cls-17,.cls-18,.cls-19,.cls-20,.cls-21,.cls-33,.cls-36,.cls-38,.cls-40,.cls-41,.cls-50,.cls-53,.cls-56,.cls-58,.cls-61,.cls-62,.cls-69,.cls-70,.cls-79,.cls-80,.cls-82,.cls-88{stroke-miterlimit:10;}.cls-11{stroke-width:0.46px;}.cls-12,.cls-22,.cls-25{font-family:Gilroy-Medium, Gilroy-Medium;}.cls-13,.cls-39,.cls-54{font-family:HYQiHei-EES-GBpc-EUC-H, HYQiHei;}.cls-14,.cls-33,.cls-34,.cls-37,.cls-43,.cls-48,.cls-50,.cls-59,.cls-60,.cls-67,.cls-68,.cls-72,.cls-74,.cls-76,.cls-81,.cls-84,.cls-85,.cls-86,.cls-87,.cls-88{fill:none;}.cls-14,.cls-37,.cls-43,.cls-48,.cls-55,.cls-57,.cls-59,.cls-60,.cls-67,.cls-71,.cls-72,.cls-74,.cls-76,.cls-81,.cls-85,.cls-87{stroke-linecap:round;}.cls-14,.cls-37,.cls-43,.cls-48,.cls-55,.cls-57,.cls-59,.cls-60,.cls-67,.cls-68,.cls-71,.cls-74,.cls-76,.cls-81,.cls-84,.cls-87{stroke-linejoin:round;}.cls-14{stroke-width:0.54px;}.cls-15,.cls-16,.cls-17,.cls-18,.cls-86{stroke-width:0.45px;}.cls-16,.cls-21,.cls-38,.cls-53,.cls-55,.cls-82{fill:#999;}.cls-17,.cls-19,.cls-35,.cls-40,.cls-56,.cls-57,.cls-80{fill:#b3b3b3;}.cls-18,.cls-20,.cls-32,.cls-41,.cls-61{fill:#ccc;}.cls-19,.cls-20,.cls-21{stroke-width:0.48px;}.cls-22{font-size:5.8px;}.cls-23{letter-spacing:-0.02em;}.cls-24{letter-spacing:-0.04em;}.cls-25{font-size:3.87px;}.cls-26{letter-spacing:-0.01em;}.cls-27{letter-spacing:-0.02em;}.cls-28{letter-spacing:0em;}.cls-29{letter-spacing:0em;}.cls-30{letter-spacing:-0.02em;}.cls-31{letter-spacing:-0.01em;}.cls-33{stroke:#666;}.cls-33,.cls-34{stroke-width:0.54px;}.cls-34{stroke:#999;}.cls-34,.cls-72,.cls-85,.cls-86{stroke-miterlimit:2;}.cls-36{stroke-width:0.49px;}.cls-37{stroke-width:1.35px;}.cls-38,.cls-40,.cls-41,.cls-76,.cls-79,.cls-82,.cls-84,.cls-85,.cls-86{stroke:#f2f2f2;}.cls-38,.cls-40,.cls-41,.cls-79{stroke-width:0.49px;}.cls-39,.cls-42{font-size:5.44px;}.cls-43{stroke-width:1.04px;}.cls-44{font-size:7.46px;letter-spacing:0.08em;}.cls-45{letter-spacing:0.06em;}.cls-46{letter-spacing:0.1em;}.cls-47{font-size:5.14px;}.cls-48,.cls-50,.cls-61,.cls-69,.cls-72,.cls-80,.cls-81{stroke:gray;}.cls-48{stroke-width:0.5px;}.cls-50,.cls-61,.cls-69,.cls-84,.cls-85{stroke-width:1.81px;}.cls-51{font-size:14.51px;}.cls-52,.cls-77,.cls-78{font-size:9.07px;}.cls-53,.cls-56,.cls-70{stroke-width:0.39px;}.cls-55,.cls-57{stroke-width:0.39px;}.cls-58{stroke-width:0.37px;}.cls-59{stroke-width:0.5px;}.cls-60{stroke-width:0.42px;}.cls-62{stroke-width:0.52px;}.cls-64{letter-spacing:-0.02em;}.cls-65{letter-spacing:-0.01em;}.cls-66{letter-spacing:0em;}.cls-67,.cls-68{stroke-width:0.7px;}.cls-71{stroke-width:0.43px;}.cls-72{stroke-width:3.52px;}.cls-73{font-size:6.3px;}.cls-74{stroke-width:0.57px;}.cls-76{stroke-width:0.73px;}.cls-77{letter-spacing:0.1em;}.cls-78{letter-spacing:0.1em;}.cls-80{stroke-width:2px;}.cls-81{stroke-width:3.34px;}.cls-82{stroke-width:0.45px;}.cls-83{font-size:4.58px;}.cls-87{stroke-width:0.83px;}.cls-88{stroke:red;stroke-width:1.36px;stroke-dasharray:2.78;}.cls-89{letter-spacing:-0.03em;}.cls-90{letter-spacing:-0.01em;}</style></defs><title>资源 56</title><g id="图层_2" data-name="图层 2"><g id="图层_1-2" data-name="图层 1"><polygon class="cls-1" points="162.97 397.87 167.69 391.64 172.42 397.87 162.97 397.87"/><polygon class="cls-1" points="423 553.44 416.77 548.72 423 543.99 423 553.44"/><polygon class="cls-1" points="485.03 154.95 478.79 150.23 485.03 145.5 485.03 154.95"/><rect class="cls-2" y="52.95" width="59.85" height="59.85" rx="12.88" ry="12.88"/><text class="cls-3" transform="translate(9.82 90.46)">APP</text><path class="cls-4" d="M144.43,0H91.85C83.23,0,78,5.26,78,13.9V82.71q0,34.73,0,69.44c0,8.21,5.35,13.59,13.53,13.6h53.23c8.18,0,13.53-5.39,13.53-13.6q0-34.71,0-69.44V13.9C158.3,5.26,153.05,0,144.43,0Zm10.13,152.49a9.36,9.36,0,0,1-9.5,9.52H91.23a9.36,9.36,0,0,1-9.5-9.52q0-69.77,0-139.54a9.39,9.39,0,0,1,9.5-9.54h7.19c1.31,4.36,2.68,5.38,7.08,5.38h25.28c4.4,0,5.78-1,7.09-5.38h7.19a9.39,9.39,0,0,1,9.5,9.54Q154.57,82.72,154.56,152.49Z"/><path class="cls-5" d="M154.56,13q0,69.77,0,139.54a9.36,9.36,0,0,1-9.5,9.52H91.23a9.36,9.36,0,0,1-9.5-9.52q0-69.77,0-139.54a9.39,9.39,0,0,1,9.5-9.54h7.19c1.31,4.36,2.68,5.38,7.08,5.38h25.28c4.4,0,5.78-1,7.09-5.38h7.19A9.39,9.39,0,0,1,154.56,13Z"/><text class="cls-6" transform="translate(101.39 84.78)"><tspan class="cls-7">L</tspan><tspan x="6.99" y="0">ogo</tspan></text><path class="cls-5" d="M259.42,13.11V152.65a9.37,9.37,0,0,1-9.51,9.53H196.09a9.37,9.37,0,0,1-9.51-9.53q0-69.77,0-139.54a9.38,9.38,0,0,1,9.51-9.53h7.18C204.58,7.93,206,9,210.36,9h25.28c4.39,0,5.77-1,7.08-5.38h7.19A9.39,9.39,0,0,1,259.42,13.11Z"/><rect class="cls-8" x="186.57" y="46.44" width="72.85" height="115.79" rx="9.49" ry="9.49"/><text class="cls-9" transform="translate(191.03 17.4)">概览</text><text class="cls-10" transform="translate(191.17 23.33)">总余额</text><text class="cls-10" transform="translate(191.17 54.48)">交易记录</text><rect class="cls-11" x="190.12" y="25.68" width="65.76" height="13.68" rx="4.07" ry="4.07"/><text class="cls-12" transform="translate(222.2 34.71)">¥ <tspan class="cls-13" x="6.05" y="0">23</tspan><tspan x="15.1" y="0">,</tspan><tspan class="cls-13" x="16.94" y="0">333</tspan></text><path class="cls-14" d="M195.11,31.7a5,5,0,0,0-.8.82,4.12,4.12,0,0,0,2.74,1.65,2.42,2.42,0,0,0,.54-.07M196.5,31a2.51,2.51,0,0,1,.55-.07,4.15,4.15,0,0,1,2.74,1.64,5.21,5.21,0,0,1-.81.83"/><path class="cls-14" d="M196.54,32.06a.69.69,0,0,0,.51,1.15.72.72,0,0,0,.48-.2"/><path class="cls-14" d="M199.51,35l-4.93-4.93"/><rect class="cls-15" x="192.11" y="122.69" width="61.77" height="4.52" rx="2.26" ry="2.26"/><rect class="cls-16" x="192.11" y="129.37" width="61.77" height="4.52" rx="2.26" ry="2.26"/><rect class="cls-17" x="192.11" y="136.05" width="61.77" height="4.52" rx="2.26" ry="2.26"/><rect class="cls-18" x="192.11" y="142.72" width="61.77" height="4.52" rx="2.26" ry="2.26"/><path class="cls-19" d="M253.88,86.71H223V55.83a30.88,30.88,0,0,1,30.87,30.88Z"/><path class="cls-20" d="M253.88,86.71a30.85,30.85,0,0,1-15.43,26.74L223,86.71Z"/><path class="cls-21" d="M238.45,113.45a30.88,30.88,0,0,1-42.19-42.19A30.91,30.91,0,0,1,223,55.83V86.71Z"/><text class="cls-22" transform="translate(230.24 74.89)"><tspan class="cls-23">B</tspan><tspan class="cls-24" x="3.45" y="0">T</tspan><tspan x="6.35" y="0">C</tspan></text><text class="cls-25" transform="translate(230.24 79.56)"><tspan class="cls-26">2</tspan><tspan class="cls-27" x="2.01" y="0">5</tspan><tspan x="4.03" y="0">%</tspan></text><text class="cls-22" transform="translate(235.78 97.11)">ETH</text><text class="cls-25" transform="translate(235.78 101.78)">18.<tspan class="cls-27" x="4.46" y="0">8</tspan><tspan x="6.53" y="0">%</tspan></text><text class="cls-22" transform="translate(199.13 89.5)">O<tspan class="cls-28" x="4.64" y="0">t</tspan><tspan class="cls-29" x="6.82" y="0">he</tspan><tspan class="cls-30" x="13.47" y="0">r</tspan><tspan x="15.26" y="0">s</tspan></text><text class="cls-25" transform="translate(199.13 94.17)">5<tspan class="cls-27" x="2.1" y="0">6</tspan><tspan x="4.1" y="0">.</tspan><tspan class="cls-31" x="5.04" y="0">2</tspan><tspan x="7.04" y="0">%</tspan></text><path class="cls-32" d="M259.42,150.23v4.57a9.46,9.46,0,0,1-9.45,9.46H196a9.45,9.45,0,0,1-9.45-9.46v-4.57Z"/><path class="cls-33" d="M211.61,153.44a.66.66,0,0,0-.66-.66h-7.44a.65.65,0,0,0-.66.66v2h8.76Z"/><path class="cls-33" d="M202.87,159.57l2.67-2.69,1.44,1.38,1.76-1.54,1,1"/><path class="cls-33" d="M211.61,155v4.16a.67.67,0,0,1-.66.66H204.6"/><path class="cls-33" d="M206.16,154.09h3.94"/><path class="cls-33" d="M204.41,154.09h.43"/><path class="cls-33" d="M202.85,155v2"/><path class="cls-34" d="M238.11,154l2.67-1.55.89,1.55Z"/><path class="cls-34" d="M235.4,154.35a.39.39,0,0,1,.39-.39h7a.38.38,0,0,1,.38.39v5.42a.38.38,0,0,1-.38.38h-7a.39.39,0,0,1-.39-.38Z"/><path class="cls-34" d="M241.45,158h1.69v-1.93h-1.69a1,1,0,1,0,0,1.93Z"/><path class="cls-34" d="M243.14,154.83v4.65"/><polygon class="cls-35" points="223 48.38 225.59 43.89 220.4 43.89 223 48.38"/><path class="cls-4" d="M249.29,0H196.71c-8.62,0-13.87,5.26-13.87,13.9V82.71q0,34.73,0,69.44c0,8.21,5.35,13.59,13.53,13.6h53.23c8.18,0,13.54-5.39,13.54-13.6V13.9C263.15,5.26,257.9,0,249.29,0Zm10.13,152.49a9.37,9.37,0,0,1-9.51,9.52H196.09a9.37,9.37,0,0,1-9.51-9.52q0-69.77,0-139.54a9.39,9.39,0,0,1,9.51-9.54h7.18c1.31,4.36,2.68,5.38,7.09,5.38h25.28c4.39,0,5.77-1,7.08-5.38h7.19A9.4,9.4,0,0,1,259.42,13Z"/><path class="cls-5" d="M259.42,197V336.54a9.37,9.37,0,0,1-9.51,9.53H196.09a9.37,9.37,0,0,1-9.51-9.53q0-69.77,0-139.54a9.38,9.38,0,0,1,9.51-9.53h7.18c1.31,4.36,2.69,5.38,7.09,5.38h25.28c4.39,0,5.77-1,7.08-5.38h7.19A9.39,9.39,0,0,1,259.42,197Z"/><rect class="cls-8" x="186.57" y="207.82" width="72.85" height="138.2" rx="9.49" ry="9.49"/><text class="cls-9" transform="translate(191.03 201.29)">钱包</text><path class="cls-32" d="M259.42,334.12v4.57a9.47,9.47,0,0,1-9.45,9.47H196a9.46,9.46,0,0,1-9.45-9.47v-4.57Z"/><path class="cls-34" d="M211.61,337.33a.67.67,0,0,0-.66-.66h-7.44a.66.66,0,0,0-.66.66v2h8.76Z"/><path class="cls-34" d="M202.87,343.47l2.67-2.7,1.44,1.38,1.76-1.54,1,1"/><path class="cls-34" d="M211.61,338.86V343a.67.67,0,0,1-.66.66H204.6"/><path class="cls-34" d="M206.16,338h3.94"/><path class="cls-34" d="M204.41,338h.43"/><path class="cls-34" d="M202.85,338.86v2"/><path class="cls-33" d="M238.11,337.85l2.67-1.55.89,1.55Z"/><path class="cls-33" d="M235.4,338.24a.4.4,0,0,1,.39-.39h7a.39.39,0,0,1,.38.39v5.42a.38.38,0,0,1-.38.38h-7a.39.39,0,0,1-.39-.38Z"/><path class="cls-33" d="M241.45,341.92h1.69V340h-1.69a1,1,0,1,0,0,1.94Z"/><path class="cls-33" d="M243.14,338.72v4.65"/><path class="cls-4" d="M249.29,183.89H196.71c-8.62,0-13.87,5.26-13.87,13.9V266.6q0,34.72,0,69.44c0,8.21,5.35,13.59,13.53,13.6h53.23c8.18,0,13.54-5.39,13.54-13.6V197.79C263.15,189.15,257.9,183.9,249.29,183.89Zm10.13,152.49a9.37,9.37,0,0,1-9.51,9.53H196.09a9.37,9.37,0,0,1-9.51-9.53q0-69.76,0-139.54a9.38,9.38,0,0,1,9.51-9.53h7.18c1.31,4.36,2.68,5.38,7.09,5.38h25.28c4.39,0,5.77-1,7.08-5.38h7.19a9.39,9.39,0,0,1,9.51,9.53Z"/><circle class="cls-36" cx="223" cy="318.54" r="9.74"/><line class="cls-37" x1="218.61" y1="318.54" x2="227.38" y2="318.54"/><line class="cls-37" x1="223" y1="314.15" x2="223" y2="322.93"/><rect class="cls-38" x="190.12" y="215.76" width="65.76" height="15.33" rx="5.38" ry="5.38"/><text class="cls-39" transform="translate(195.74 225.06)"><tspan xml:space="preserve">简称1                1BTC</tspan></text><rect class="cls-40" x="190.12" y="235.08" width="65.76" height="15.33" rx="5.38" ry="5.38"/><text class="cls-39" transform="translate(195.74 244.38)"><tspan xml:space="preserve">简称2                2ETH</tspan></text><rect class="cls-41" x="190.12" y="254.39" width="65.76" height="15.33" rx="5.38" ry="5.38"/><text class="cls-39" transform="translate(195.74 263.7)"><tspan xml:space="preserve">简称3                3XXX</tspan></text><rect class="cls-41" x="190.12" y="274.31" width="65.76" height="15.33" rx="5.38" ry="5.38"/><text class="cls-39" transform="translate(195.74 283.61)"><tspan xml:space="preserve">简称4                4XXX</tspan></text><text class="cls-42" transform="translate(522.71 168.93)">OR</text><text class="cls-42" transform="translate(522.71 356.01)">OR</text><path class="cls-5" d="M357.86,197q0,69.76,0,139.54a9.37,9.37,0,0,1-9.51,9.53H294.53a9.37,9.37,0,0,1-9.51-9.53q0-69.77,0-139.54a9.39,9.39,0,0,1,9.51-9.53h7.19c1.31,4.36,2.68,5.38,7.08,5.38h25.28c4.4,0,5.78-1,7.09-5.38h7.18A9.38,9.38,0,0,1,357.86,197Z"/><rect class="cls-8" x="285.02" y="207.82" width="72.85" height="138.2" rx="9.49" ry="9.49"/><path class="cls-32" d="M357.86,334.12v4.57a9.46,9.46,0,0,1-9.45,9.47H294.47a9.47,9.47,0,0,1-9.45-9.47v-4.57Z"/><path class="cls-34" d="M310.05,337.33a.66.66,0,0,0-.65-.66H302a.66.66,0,0,0-.65.66v2h8.75Z"/><path class="cls-34" d="M301.32,343.47l2.67-2.7,1.44,1.38,1.76-1.54,1,1"/><path class="cls-34" d="M310.05,338.86V343a.66.66,0,0,1-.65.66h-6.35"/><path class="cls-34" d="M304.6,338h3.95"/><path class="cls-34" d="M302.85,338h.44"/><path class="cls-34" d="M301.3,338.86v2"/><path class="cls-33" d="M336.55,337.85l2.67-1.55.9,1.55Z"/><path class="cls-33" d="M333.85,338.24a.39.39,0,0,1,.39-.39h7a.4.4,0,0,1,.39.39v5.42a.39.39,0,0,1-.39.38h-7a.38.38,0,0,1-.39-.38Z"/><path class="cls-33" d="M339.9,341.92h1.69V340H339.9a1,1,0,1,0,0,1.94Z"/><path class="cls-33" d="M341.59,338.72v4.65"/><path class="cls-4" d="M347.73,183.89H295.15c-8.62,0-13.86,5.26-13.86,13.9V336c0,8.21,5.36,13.59,13.54,13.6h53.23c8.18,0,13.53-5.39,13.53-13.6q0-34.71,0-69.44V197.79C361.6,189.15,356.35,183.9,347.73,183.89Zm10.13,152.49a9.37,9.37,0,0,1-9.51,9.53H294.53a9.37,9.37,0,0,1-9.51-9.53q0-69.76,0-139.54a9.39,9.39,0,0,1,9.51-9.53h7.19c1.31,4.36,2.68,5.38,7.08,5.38h25.28c4.4,0,5.78-1,7.09-5.38h7.18a9.38,9.38,0,0,1,9.51,9.53Q357.88,266.61,357.86,336.38Z"/><polygon class="cls-35" points="321.44 306.53 324.04 302.04 318.85 302.04 321.44 306.53"/><circle class="cls-36" cx="321.44" cy="318.54" r="9.74"/><path class="cls-43" d="M321,322.53a4.48,4.48,0,1,0-4.47-4.48A4.48,4.48,0,0,0,321,322.53Z"/><path class="cls-43" d="M322.44,316.3a2.09,2.09,0,0,0-1.49-.62,2.13,2.13,0,0,0-1.49.62"/><path class="cls-43" d="M324.17,321.27l2.24,2.24"/><path class="cls-41" d="M354.33,241.62v52.76a5.39,5.39,0,0,1-5.39,5.39h-55a5.39,5.39,0,0,1-5.37-5.39V241.62Z"/><path class="cls-41" d="M354.33,236.35v52.76a5.39,5.39,0,0,1-5.39,5.39h-55a5.38,5.38,0,0,1-5.37-5.39V236.35Z"/><path class="cls-40" d="M354.33,231.09v52.76a5.39,5.39,0,0,1-5.39,5.39h-55a5.39,5.39,0,0,1-5.37-5.39V231.09Z"/><path class="cls-38" d="M354.33,221.13v10H288.56v-10a5.38,5.38,0,0,1,5.37-5.37h55A5.38,5.38,0,0,1,354.33,221.13Z"/><text class="cls-44" transform="translate(314.09 225.97)">B<tspan class="cls-45" x="5.11" y="0">T</tspan><tspan class="cls-46" x="9.59" y="0">C</tspan></text><text class="cls-47" transform="translate(300.9 243.52)"><tspan xml:space="preserve">名称         XXX</tspan></text><circle class="cls-8" cx="295.77" cy="241.67" r="1.38"/><text class="cls-47" transform="translate(300.9 255.4)"><tspan xml:space="preserve">地址         OX12345</tspan></text><circle class="cls-8" cx="295.77" cy="253.39" r="1.38"/><text class="cls-47" transform="translate(300.9 267.29)"><tspan xml:space="preserve">类型         BTC</tspan></text><circle class="cls-8" cx="295.77" cy="265.43" r="1.38"/><text class="cls-47" transform="translate(300.9 279.19)"><tspan xml:space="preserve">余额         1</tspan></text><circle class="cls-8" cx="295.77" cy="277.47" r="1.38"/><text class="cls-9" transform="translate(293.56 201.29)">BTC</text><polyline class="cls-48" points="290.99 201.29 288.56 198.86 290.99 196.43"/><path class="cls-5" d="M456.31,197q0,69.76,0,139.54a9.37,9.37,0,0,1-9.51,9.53H393a9.37,9.37,0,0,1-9.51-9.53q0-69.77,0-139.54a9.38,9.38,0,0,1,9.51-9.53h7.18c1.32,4.36,2.69,5.38,7.09,5.38h25.28c4.4,0,5.77-1,7.08-5.38h7.19A9.38,9.38,0,0,1,456.31,197Z"/><rect class="cls-8" x="383.46" y="266.04" width="72.85" height="82.07" rx="9.49" ry="9.49"/><path class="cls-32" d="M456.31,334.12v4.57a9.47,9.47,0,0,1-9.45,9.47H392.92a9.46,9.46,0,0,1-9.45-9.47v-4.57Z"/><path class="cls-34" d="M408.5,337.33a.66.66,0,0,0-.66-.66H400.4a.67.67,0,0,0-.66.66v2h8.76Z"/><path class="cls-34" d="M399.77,343.47l2.66-2.7,1.44,1.38,1.76-1.54,1,1"/><path class="cls-34" d="M408.5,338.86V343a.66.66,0,0,1-.66.66h-6.35"/><path class="cls-34" d="M403.05,338H407"/><path class="cls-34" d="M401.3,338h.44"/><path class="cls-34" d="M399.74,338.86v2"/><path class="cls-33" d="M435,337.85l2.67-1.55.89,1.55Z"/><path class="cls-33" d="M432.29,338.24a.4.4,0,0,1,.39-.39h7a.39.39,0,0,1,.38.39v5.42a.38.38,0,0,1-.38.38h-7a.39.39,0,0,1-.39-.38Z"/><path class="cls-33" d="M438.34,341.92H440V340h-1.69a1,1,0,1,0,0,1.94Z"/><path class="cls-33" d="M440,338.72v4.65"/><path class="cls-4" d="M446.18,183.89H393.6c-8.62,0-13.87,5.26-13.87,13.9V266.6q0,34.72,0,69.44c0,8.21,5.36,13.59,13.53,13.6H446.5c8.18,0,13.54-5.39,13.54-13.6V197.79C460,189.15,454.8,183.9,446.18,183.89Zm10.13,152.49a9.37,9.37,0,0,1-9.51,9.53H393a9.37,9.37,0,0,1-9.51-9.53q0-69.76,0-139.54a9.38,9.38,0,0,1,9.51-9.53h7.18c1.32,4.36,2.69,5.38,7.09,5.38h25.28c4.39,0,5.77-1,7.08-5.38h7.19a9.39,9.39,0,0,1,9.51,9.53Q456.33,266.61,456.31,336.38Z"/><text class="cls-9" transform="translate(392 201.29)">私钥找回</text><polyline class="cls-48" points="389.44 201.29 387.01 198.86 389.44 196.43"/><text class="cls-49" transform="translate(391.08 258.72)">已找到66%，还需1次即可找回私钥</text><polygon class="cls-35" points="419.89 267.04 422.48 262.55 417.3 262.55 419.89 267.04"/><path class="cls-32" d="M440.3,229.53a20.42,20.42,0,1,1-40.83,0,19.94,19.94,0,0,1,.91-6c2.78.73,5.94-.71,11.17-2.59,9.44-3.4,14.8.86,14.8.86s4.51,3.66,12.72.71A20.6,20.6,0,0,1,440.3,229.53Z"/><circle class="cls-50" cx="419.89" cy="229.54" r="20.42"/><text class="cls-51" transform="translate(408.4 235.08)">66<tspan class="cls-52" x="16.05" y="0">%</tspan></text><rect class="cls-53" x="389" y="269.96" width="61.77" height="5.77" rx="2.89" ry="2.89"/><text class="cls-54" transform="translate(392.44 273.94)">分存1</text><circle class="cls-53" cx="447.89" cy="272.85" r="2.89"/><line class="cls-55" x1="446.94" y1="272.85" x2="448.9" y2="272.85"/><rect class="cls-53" x="389" y="278.04" width="61.77" height="5.77" rx="2.89" ry="2.89"/><text class="cls-54" transform="translate(392.44 282.02)">分存2</text><circle class="cls-53" cx="447.89" cy="280.93" r="2.89"/><line class="cls-55" x1="446.94" y1="280.93" x2="448.9" y2="280.93"/><rect class="cls-56" x="389" y="286.12" width="61.77" height="5.77" rx="2.89" ry="2.89"/><circle class="cls-56" cx="447.89" cy="289" r="2.89"/><line class="cls-57" x1="446.94" y1="289" x2="448.9" y2="289"/><line class="cls-57" x1="447.92" y1="288.03" x2="447.92" y2="289.98"/><text class="cls-54" transform="translate(392.44 290.1)">分存3</text><rect class="cls-56" x="389" y="294.2" width="61.77" height="5.77" rx="2.89" ry="2.89"/><circle class="cls-56" cx="447.89" cy="297.08" r="2.89"/><line class="cls-57" x1="446.94" y1="297.08" x2="448.9" y2="297.08"/><line class="cls-57" x1="447.92" y1="296.1" x2="447.92" y2="298.06"/><text class="cls-54" transform="translate(392.44 298.17)">分存4</text><rect class="cls-56" x="389" y="302.27" width="61.77" height="5.77" rx="2.89" ry="2.89"/><circle class="cls-56" cx="447.89" cy="305.16" r="2.89"/><line class="cls-57" x1="446.94" y1="305.16" x2="448.9" y2="305.16"/><line class="cls-57" x1="447.92" y1="304.18" x2="447.92" y2="306.14"/><text class="cls-54" transform="translate(392.44 306.25)">分存5</text><circle class="cls-58" cx="440.57" cy="321.55" r="7.35"/><path class="cls-59" d="M438.24,319.23l4.66,4.44-2.33,2.11v-8.46l2.33,2.12-4.66,4.44"/><circle class="cls-58" cx="399.21" cy="321.55" r="7.35"/><path class="cls-60" d="M399,325h3.57v-6.79h-5.18v1.78"/><path class="cls-60" d="M395.81,319.94H399v5h-3.22Z"/><path class="cls-60" d="M397.24,323.87h.36"/><path class="cls-60" d="M399.92,323.87h.36"/><circle class="cls-58" cx="419.89" cy="321.55" r="7.35"/><path class="cls-59" d="M421.54,318.24h1.66v1.66m0,3.31v1.65h-1.66m-3.31,0h-1.65v-1.65m0-3.31v-1.66h1.65"/><path class="cls-59" d="M417.31,321.55h5.15"/><path class="cls-5" d="M554.75,197q0,69.76,0,139.54a9.37,9.37,0,0,1-9.5,9.53H491.42a9.37,9.37,0,0,1-9.5-9.53q0-69.77,0-139.54a9.38,9.38,0,0,1,9.5-9.53h7.19c1.31,4.36,2.68,5.38,7.08,5.38H531c4.4,0,5.78-1,7.09-5.38h7.19A9.38,9.38,0,0,1,554.75,197Z"/><rect class="cls-8" x="481.91" y="266.04" width="72.85" height="82.07" rx="9.49" ry="9.49"/><path class="cls-32" d="M554.75,334.12v4.57a9.46,9.46,0,0,1-9.45,9.47H491.36a9.47,9.47,0,0,1-9.45-9.47v-4.57Z"/><path class="cls-34" d="M506.94,337.33a.66.66,0,0,0-.65-.66h-7.45a.66.66,0,0,0-.65.66v2h8.75Z"/><path class="cls-34" d="M498.21,343.47l2.67-2.7,1.44,1.38,1.76-1.54,1,1"/><path class="cls-34" d="M506.94,338.86V343a.66.66,0,0,1-.65.66h-6.35"/><path class="cls-34" d="M501.5,338h3.94"/><path class="cls-34" d="M499.74,338h.44"/><path class="cls-34" d="M498.19,338.86v2"/><path class="cls-33" d="M533.45,337.85l2.67-1.55.89,1.55Z"/><path class="cls-33" d="M530.74,338.24a.39.39,0,0,1,.39-.39h7a.39.39,0,0,1,.39.39v5.42a.38.38,0,0,1-.39.38h-7a.38.38,0,0,1-.39-.38Z"/><path class="cls-33" d="M536.79,341.92h1.69V340h-1.69a1,1,0,1,0,0,1.94Z"/><path class="cls-33" d="M538.48,338.72v4.65"/><path class="cls-4" d="M544.62,183.89H492c-8.62,0-13.86,5.26-13.86,13.9V336c0,8.21,5.36,13.59,13.54,13.6H545c8.18,0,13.53-5.39,13.53-13.6q0-34.71,0-69.44V197.79C558.49,189.15,553.24,183.9,544.62,183.89Zm10.13,152.49a9.37,9.37,0,0,1-9.51,9.53H491.42a9.37,9.37,0,0,1-9.5-9.53q0-69.76,0-139.54a9.38,9.38,0,0,1,9.5-9.53h7.19c1.31,4.36,2.68,5.38,7.08,5.38H531c4.4,0,5.78-1,7.09-5.38h7.18a9.38,9.38,0,0,1,9.51,9.53Q554.77,266.61,554.75,336.38Z"/><text class="cls-9" transform="translate(490.45 201.29)">私钥找回</text><polyline class="cls-48" points="487.89 201.29 485.45 198.86 487.89 196.43"/><polygon class="cls-35" points="518.33 267.04 520.93 262.55 515.74 262.55 518.33 267.04"/><circle class="cls-61" cx="518.33" cy="229.54" r="20.42"/><text class="cls-51" transform="translate(502.92 235.08)">100<tspan class="cls-52" x="23.9" y="0">%</tspan></text><text class="cls-49" transform="translate(506.19 258.72)">您已成功找回！</text><rect class="cls-62" x="487.45" y="270.37" width="61.77" height="17.56" rx="3.42" ry="3.42"/><text class="cls-63" transform="translate(492.26 281.73)"><tspan class="cls-64">8</tspan><tspan x="3.98" y="0">X1</tspan><tspan class="cls-65" x="11.21" y="0">23</tspan><tspan class="cls-66" x="18.87" y="0">ABC</tspan></text><path class="cls-67" d="M538.88,277.29v-.81a.49.49,0,0,1,.49-.49h4.24a.49.49,0,0,1,.49.49v4.25a.49.49,0,0,1-.49.49h-.81"/><path class="cls-68" d="M542.22,277.39H538a.49.49,0,0,0-.49.49v4.24a.49.49,0,0,0,.49.49h4.25a.49.49,0,0,0,.49-.49v-4.24A.49.49,0,0,0,542.22,277.39Z"/><rect class="cls-53" x="487.45" y="290.91" width="61.77" height="5.77" rx="2.89" ry="2.89"/><text class="cls-54" transform="translate(490.88 294.89)">分存1</text><circle class="cls-53" cx="546.33" cy="293.8" r="2.89"/><line class="cls-55" x1="545.39" y1="293.8" x2="547.35" y2="293.8"/><rect class="cls-53" x="487.45" y="298.99" width="61.77" height="5.77" rx="2.89" ry="2.89"/><text class="cls-54" transform="translate(490.88 302.97)">分存2</text><circle class="cls-53" cx="546.33" cy="301.88" r="2.89"/><line class="cls-55" x1="545.39" y1="301.88" x2="547.35" y2="301.88"/><rect class="cls-53" x="487.45" y="307.07" width="61.77" height="5.77" rx="2.89" ry="2.89"/><circle class="cls-56" cx="546.33" cy="309.95" r="2.89"/><line class="cls-57" x1="545.39" y1="309.95" x2="547.35" y2="309.95"/><text class="cls-54" transform="translate(490.88 311.04)">分存3</text><rect class="cls-56" x="487.45" y="315.14" width="61.77" height="5.77" rx="2.89" ry="2.89"/><circle class="cls-56" cx="546.33" cy="318.03" r="2.89"/><line class="cls-57" x1="545.39" y1="318.03" x2="547.35" y2="318.03"/><line class="cls-57" x1="546.37" y1="317.05" x2="546.37" y2="319.01"/><text class="cls-54" transform="translate(490.88 319.12)">分存4</text><rect class="cls-56" x="487.45" y="323.22" width="61.77" height="5.77" rx="2.89" ry="2.89"/><circle class="cls-56" cx="546.33" cy="326.11" r="2.89"/><line class="cls-57" x1="545.39" y1="326.11" x2="547.35" y2="326.11"/><line class="cls-57" x1="546.37" y1="325.13" x2="546.37" y2="327.09"/><text class="cls-54" transform="translate(490.88 327.2)">分存5</text><path class="cls-5" d="M653.2,197q0,69.76,0,139.54a9.37,9.37,0,0,1-9.51,9.53H589.87a9.37,9.37,0,0,1-9.51-9.53q0-69.77,0-139.54a9.38,9.38,0,0,1,9.51-9.53h7.19c1.31,4.36,2.68,5.38,7.08,5.38h25.28c4.4,0,5.77-1,7.09-5.38h7.18A9.38,9.38,0,0,1,653.2,197Z"/><rect class="cls-8" x="580.35" y="266.04" width="72.85" height="82.07" rx="9.49" ry="9.49"/><path class="cls-32" d="M653.2,334.12v4.57a9.47,9.47,0,0,1-9.45,9.47H589.81a9.47,9.47,0,0,1-9.45-9.47v-4.57Z"/><path class="cls-34" d="M605.39,337.33a.66.66,0,0,0-.66-.66h-7.44a.67.67,0,0,0-.66.66v2h8.76Z"/><path class="cls-34" d="M596.66,343.47l2.66-2.7,1.44,1.38,1.76-1.54,1,1"/><path class="cls-34" d="M605.39,338.86V343a.66.66,0,0,1-.66.66h-6.35"/><path class="cls-34" d="M599.94,338h3.94"/><path class="cls-34" d="M598.19,338h.44"/><path class="cls-34" d="M596.63,338.86v2"/><path class="cls-33" d="M631.89,337.85l2.67-1.55.89,1.55Z"/><path class="cls-33" d="M629.19,338.24a.39.39,0,0,1,.38-.39h7a.4.4,0,0,1,.39.39v5.42a.39.39,0,0,1-.39.38h-7a.38.38,0,0,1-.38-.38Z"/><path class="cls-33" d="M635.23,341.92h1.7V340h-1.7a1,1,0,1,0,0,1.94Z"/><path class="cls-33" d="M636.93,338.72v4.65"/><path class="cls-4" d="M643.07,183.89H590.49c-8.62,0-13.86,5.26-13.86,13.9V336c0,8.21,5.36,13.59,13.53,13.6h53.23c8.18,0,13.54-5.39,13.54-13.6V197.79C656.93,189.15,651.69,183.9,643.07,183.89ZM653.2,336.38a9.37,9.37,0,0,1-9.51,9.53H589.87a9.37,9.37,0,0,1-9.51-9.53q0-69.76,0-139.54a9.38,9.38,0,0,1,9.51-9.53h7.18c1.32,4.36,2.69,5.38,7.09,5.38h25.28c4.4,0,5.77-1,7.08-5.38h7.19a9.38,9.38,0,0,1,9.51,9.53Q653.22,266.61,653.2,336.38Z"/><text class="cls-9" transform="translate(588.9 201.29)">私钥找回</text><polyline class="cls-48" points="586.33 201.29 583.9 198.86 586.33 196.43"/><polygon class="cls-35" points="616.78 267.04 619.37 262.55 614.19 262.55 616.78 267.04"/><circle class="cls-69" cx="616.78" cy="229.54" r="20.42"/><text class="cls-49" transform="translate(609.52 258.72)">找回失败</text><rect class="cls-62" x="585.89" y="270.37" width="61.77" height="17.56" rx="3.42" ry="3.42"/><rect class="cls-53" x="585.89" y="290.91" width="61.77" height="5.77" rx="2.89" ry="2.89"/><text class="cls-54" transform="translate(589.33 294.89)">分存1</text><circle class="cls-53" cx="644.78" cy="293.8" r="2.89"/><line class="cls-55" x1="643.84" y1="293.8" x2="645.79" y2="293.8"/><rect class="cls-53" x="585.89" y="298.99" width="61.77" height="5.77" rx="2.89" ry="2.89"/><text class="cls-54" transform="translate(589.33 302.97)">分存2</text><circle class="cls-53" cx="644.78" cy="301.88" r="2.89"/><line class="cls-55" x1="643.84" y1="301.88" x2="645.79" y2="301.88"/><rect class="cls-70" x="585.89" y="307.07" width="61.77" height="5.77" rx="2.89" ry="2.89"/><circle class="cls-70" cx="644.78" cy="309.95" r="2.89"/><text class="cls-54" transform="translate(589.33 311.04)">分存3</text><path class="cls-71" d="M644.78,311.39v.2"/><path class="cls-71" d="M644.78,308.32v1.92"/><rect class="cls-56" x="585.89" y="315.14" width="61.77" height="5.77" rx="2.89" ry="2.89"/><circle class="cls-56" cx="644.78" cy="318.03" r="2.89"/><line class="cls-57" x1="643.84" y1="318.03" x2="645.79" y2="318.03"/><line class="cls-57" x1="644.81" y1="317.05" x2="644.81" y2="319.01"/><text class="cls-54" transform="translate(589.33 319.12)">分存4</text><rect class="cls-56" x="585.89" y="323.22" width="61.77" height="5.77" rx="2.89" ry="2.89"/><circle class="cls-56" cx="644.78" cy="326.11" r="2.89"/><line class="cls-57" x1="643.84" y1="326.11" x2="645.79" y2="326.11"/><line class="cls-57" x1="644.81" y1="325.13" x2="644.81" y2="327.09"/><text class="cls-54" transform="translate(589.33 327.2)">分存5</text><path class="cls-72" d="M616.78,237.48v1.06"/><path class="cls-72" d="M616.78,220.53v10.6"/><text class="cls-73" transform="translate(589.77 281.31)">图3疑似被修改</text><path class="cls-74" d="M643.51,279.33a3.12,3.12,0,0,0-3.12-3.12,3.16,3.16,0,0,0-1.19.24,3.5,3.5,0,0,0-.54.29,3.3,3.3,0,0,0-.86.86m-.53,1.73a3.12,3.12,0,0,0,3.12,3.12h0a3.17,3.17,0,0,0,1.2-.23,3.5,3.5,0,0,0,.54-.29,3.6,3.6,0,0,0,.47-.39,4.42,4.42,0,0,0,.39-.47"/><path class="cls-74" d="M643.51,276.56v2.77"/><path class="cls-74" d="M637.27,279.33v2.78"/><path class="cls-5" d="M357.86,380.89q0,69.76,0,139.54a9.37,9.37,0,0,1-9.51,9.53H294.53a9.37,9.37,0,0,1-9.51-9.53q0-69.76,0-139.54a9.39,9.39,0,0,1,9.51-9.53h7.19c1.31,4.36,2.68,5.38,7.08,5.38h25.28c4.4,0,5.78-1,7.09-5.38h7.18A9.39,9.39,0,0,1,357.86,380.89Z"/><rect class="cls-8" x="285.02" y="391.71" width="72.85" height="138.2" rx="9.49" ry="9.49"/><path class="cls-32" d="M357.86,518v4.57a9.46,9.46,0,0,1-9.45,9.47H294.47a9.47,9.47,0,0,1-9.45-9.47V518Z"/><path class="cls-34" d="M310.05,521.22a.66.66,0,0,0-.65-.66H302a.66.66,0,0,0-.65.66v2h8.75Z"/><path class="cls-34" d="M301.32,527.36l2.67-2.7,1.44,1.38,1.76-1.54,1,1"/><path class="cls-34" d="M310.05,522.75v4.16a.66.66,0,0,1-.65.66h-6.35"/><path class="cls-34" d="M304.6,521.88h3.95"/><path class="cls-34" d="M302.85,521.88h.44"/><path class="cls-34" d="M301.3,522.75v2"/><path class="cls-33" d="M336.55,521.74l2.67-1.54.9,1.54Z"/><path class="cls-33" d="M333.85,522.13a.39.39,0,0,1,.39-.39h7a.4.4,0,0,1,.39.39v5.42a.39.39,0,0,1-.39.38h-7a.38.38,0,0,1-.39-.38Z"/><path class="cls-33" d="M339.9,525.81h1.69v-1.94H339.9a1,1,0,1,0,0,1.94Z"/><path class="cls-33" d="M341.59,522.61v4.65"/><path class="cls-4" d="M347.73,367.78H295.15c-8.62,0-13.86,5.26-13.86,13.9V519.93c0,8.21,5.36,13.59,13.54,13.6h53.23c8.18,0,13.53-5.39,13.53-13.6q0-34.71,0-69.44V381.68C361.6,373,356.35,367.79,347.73,367.78Zm10.13,152.49a9.37,9.37,0,0,1-9.51,9.53H294.53a9.37,9.37,0,0,1-9.51-9.53q0-69.76,0-139.54a9.39,9.39,0,0,1,9.51-9.53h7.19c1.31,4.36,2.68,5.38,7.08,5.38h25.28c4.4,0,5.78-1,7.09-5.38h7.18a9.38,9.38,0,0,1,9.51,9.53Q357.88,450.5,357.86,520.27Z"/><polygon class="cls-35" points="321.44 490.42 324.04 485.93 318.85 485.93 321.44 490.42"/><circle class="cls-36" cx="321.44" cy="502.43" r="9.74"/><path class="cls-41" d="M354.33,425.51v52.76a5.39,5.39,0,0,1-5.39,5.39h-55a5.39,5.39,0,0,1-5.37-5.39V425.51Z"/><path class="cls-41" d="M354.33,420.24V473a5.38,5.38,0,0,1-5.39,5.38h-55a5.38,5.38,0,0,1-5.37-5.38V420.24Z"/><path class="cls-40" d="M354.33,415v52.76a5.39,5.39,0,0,1-5.39,5.39h-55a5.39,5.39,0,0,1-5.37-5.39V415Z"/><path class="cls-38" d="M354.33,405v10H288.56V405a5.38,5.38,0,0,1,5.37-5.37h55A5.39,5.39,0,0,1,354.33,405Z"/><text class="cls-9" transform="translate(293.56 385.18)">添加账户</text><polyline class="cls-48" points="290.99 385.18 288.56 382.75 290.99 380.32"/><line class="cls-37" x1="317.06" y1="407.32" x2="325.83" y2="407.32"/><line class="cls-37" x1="321.44" y1="402.93" x2="321.44" y2="411.7"/><text class="cls-47" transform="translate(301.03 424.71)">私钥</text><circle class="cls-8" cx="295.9" cy="422.87" r="1.38"/><rect class="cls-32" x="315.73" y="420.41" width="32.64" height="5.49" rx="1.68" ry="1.68"/><text class="cls-47" transform="translate(301.03 434.77)">地址</text><circle class="cls-8" cx="295.9" cy="432.75" r="1.38"/><rect class="cls-32" x="315.73" y="430.47" width="32.64" height="5.49" rx="1.68" ry="1.68"/><text class="cls-47" transform="translate(301.03 444.82)">类型</text><circle class="cls-8" cx="295.9" cy="442.95" r="1.38"/><rect class="cls-32" x="315.73" y="440.52" width="32.64" height="5.49" rx="1.68" ry="1.68"/><text class="cls-47" transform="translate(301.03 454.87)">备注</text><circle class="cls-8" cx="295.9" cy="453.16" r="1.38"/><rect class="cls-32" x="315.73" y="450.57" width="32.64" height="5.49" rx="1.68" ry="1.68"/><text class="cls-47" transform="translate(294.52 466.14)">门限数</text><circle class="cls-32" cx="315.08" cy="464.58" r="2.46"/><text class="cls-75" transform="translate(314.32 466.01)">1</text><text class="cls-47" transform="translate(325.35 466.14)">分存数</text><circle class="cls-32" cx="345.91" cy="464.58" r="2.46"/><text class="cls-75" transform="translate(345.15 466.01)">1</text><path class="cls-37" d="M326.31,502.43h-9.74"/><path class="cls-37" d="M322.42,498.54l3.89,3.89-3.89,3.9"/><path class="cls-5" d="M456.31,380.89q0,69.76,0,139.54A9.37,9.37,0,0,1,446.8,530H393a9.37,9.37,0,0,1-9.51-9.53q0-69.76,0-139.54a9.39,9.39,0,0,1,9.51-9.53h7.18c1.32,4.36,2.69,5.38,7.09,5.38h25.28c4.4,0,5.77-1,7.08-5.38h7.19A9.39,9.39,0,0,1,456.31,380.89Z"/><rect class="cls-8" x="383.46" y="391.71" width="72.85" height="138.2" rx="9.49" ry="9.49"/><path class="cls-32" d="M456.31,518v4.57a9.47,9.47,0,0,1-9.45,9.47H392.92a9.46,9.46,0,0,1-9.45-9.47V518Z"/><path class="cls-34" d="M408.5,521.22a.66.66,0,0,0-.66-.66H400.4a.67.67,0,0,0-.66.66v2h8.76Z"/><path class="cls-34" d="M399.77,527.36l2.66-2.7,1.44,1.38,1.76-1.54,1,1"/><path class="cls-34" d="M408.5,522.75v4.16a.66.66,0,0,1-.66.66h-6.35"/><path class="cls-34" d="M403.05,521.88H407"/><path class="cls-34" d="M401.3,521.88h.44"/><path class="cls-34" d="M399.74,522.75v2"/><path class="cls-33" d="M435,521.74l2.67-1.54.89,1.54Z"/><path class="cls-33" d="M432.29,522.13a.4.4,0,0,1,.39-.39h7a.39.39,0,0,1,.38.39v5.42a.38.38,0,0,1-.38.38h-7a.39.39,0,0,1-.39-.38Z"/><path class="cls-33" d="M438.34,525.81H440v-1.94h-1.69a1,1,0,1,0,0,1.94Z"/><path class="cls-33" d="M440,522.61v4.65"/><path class="cls-4" d="M446.18,367.78H393.6c-8.62,0-13.87,5.26-13.87,13.9v68.81q0,34.72,0,69.44c0,8.21,5.36,13.59,13.53,13.6H446.5c8.18,0,13.54-5.39,13.54-13.6V381.68C460,373,454.8,367.79,446.18,367.78Zm10.13,152.49a9.37,9.37,0,0,1-9.51,9.53H393a9.37,9.37,0,0,1-9.51-9.53q0-69.76,0-139.54A9.38,9.38,0,0,1,393,371.2h7.18c1.32,4.36,2.69,5.38,7.09,5.38h25.28c4.39,0,5.77-1,7.08-5.38h7.19a9.39,9.39,0,0,1,9.51,9.53Q456.33,450.5,456.31,520.27Z"/><polygon class="cls-35" points="419.89 490.42 422.48 485.93 417.3 485.93 419.89 490.42"/><path class="cls-41" d="M452.77,425.51v52.76a5.39,5.39,0,0,1-5.38,5.39h-55a5.39,5.39,0,0,1-5.37-5.39V425.51Z"/><path class="cls-41" d="M452.77,420.24V473a5.38,5.38,0,0,1-5.38,5.38h-55A5.38,5.38,0,0,1,387,473V420.24Z"/><path class="cls-40" d="M387,457.8V405a5.39,5.39,0,0,1,5.38-5.39h55a5.39,5.39,0,0,1,5.37,5.39V457.8Z"/><path class="cls-38" d="M387,467.76v-10h65.76v10a5.38,5.38,0,0,1-5.37,5.37h-55A5.39,5.39,0,0,1,387,467.76Z"/><text class="cls-9" transform="translate(392 385.18)">分存图片</text><polyline class="cls-48" points="389.44 385.18 387.01 382.75 389.44 380.32"/><circle class="cls-36" cx="419.89" cy="502.43" r="9.74"/><path class="cls-37" d="M424.76,502.43H415"/><path class="cls-37" d="M420.86,498.54l3.9,3.89-3.9,3.9"/><path class="cls-76" d="M435.66,461.2l3.94,3.94-3.94,3.72v-2.41c-3.06,0-4.38,3.28-4.38,3.28,0-3.72,1.1-6.13,4.38-6.13Z"/><path class="cls-76" d="M400.18,465.32v4.11h8.23v-4.12"/><path class="cls-76" d="M406.36,465.08l-2.06,2.06-2.06-2.06"/><path class="cls-76" d="M404.3,461.2v5.94"/><rect class="cls-8" x="393.38" y="406.61" width="15.03" height="15.03" rx="4.01" ry="4.01"/><text class="cls-77" transform="translate(398.69 417.56)">1</text><rect class="cls-8" x="412.73" y="406.61" width="15.03" height="15.03" rx="4.01" ry="4.01"/><text class="cls-78" transform="translate(418.04 417.56)">2</text><rect class="cls-8" x="432.08" y="406.61" width="15.03" height="15.03" rx="4.01" ry="4.01"/><text class="cls-78" transform="translate(437.39 417.56)">3</text><rect class="cls-8" x="393.38" y="427.25" width="15.03" height="15.03" rx="4.01" ry="4.01"/><text class="cls-78" transform="translate(398.69 438.19)">4</text><rect class="cls-8" x="412.73" y="427.25" width="15.03" height="15.03" rx="4.01" ry="4.01"/><text class="cls-78" transform="translate(418.04 438.19)">5</text><path class="cls-5" d="M653.2,380.89q0,69.76,0,139.54a9.37,9.37,0,0,1-9.51,9.53H589.87a9.37,9.37,0,0,1-9.51-9.53q0-69.76,0-139.54a9.39,9.39,0,0,1,9.51-9.53h7.19c1.31,4.36,2.68,5.38,7.08,5.38h25.28c4.4,0,5.77-1,7.09-5.38h7.18A9.39,9.39,0,0,1,653.2,380.89Z"/><rect class="cls-8" x="580.35" y="391.71" width="72.85" height="138.2" rx="9.49" ry="9.49"/><path class="cls-32" d="M653.2,518v4.57a9.47,9.47,0,0,1-9.45,9.47H589.81a9.47,9.47,0,0,1-9.45-9.47V518Z"/><path class="cls-34" d="M605.39,521.22a.66.66,0,0,0-.66-.66h-7.44a.67.67,0,0,0-.66.66v2h8.76Z"/><path class="cls-34" d="M596.66,527.36l2.66-2.7,1.44,1.38,1.76-1.54,1,1"/><path class="cls-34" d="M605.39,522.75v4.16a.66.66,0,0,1-.66.66h-6.35"/><path class="cls-34" d="M599.94,521.88h3.94"/><path class="cls-34" d="M598.19,521.88h.44"/><path class="cls-34" d="M596.63,522.75v2"/><path class="cls-33" d="M631.89,521.74l2.67-1.54.89,1.54Z"/><path class="cls-33" d="M629.19,522.13a.39.39,0,0,1,.38-.39h7a.4.4,0,0,1,.39.39v5.42a.39.39,0,0,1-.39.38h-7a.38.38,0,0,1-.38-.38Z"/><path class="cls-33" d="M635.23,525.81h1.7v-1.94h-1.7a1,1,0,1,0,0,1.94Z"/><path class="cls-33" d="M636.93,522.61v4.65"/><path class="cls-4" d="M643.07,367.78H590.49c-8.62,0-13.86,5.26-13.86,13.9V519.93c0,8.21,5.36,13.59,13.53,13.6h53.23c8.18,0,13.54-5.39,13.54-13.6V381.68C656.93,373,651.69,367.79,643.07,367.78ZM653.2,520.27a9.37,9.37,0,0,1-9.51,9.53H589.87a9.37,9.37,0,0,1-9.51-9.53q0-69.76,0-139.54a9.38,9.38,0,0,1,9.51-9.53h7.18c1.32,4.36,2.69,5.38,7.09,5.38h25.28c4.4,0,5.77-1,7.08-5.38h7.19a9.38,9.38,0,0,1,9.51,9.53Q653.22,450.5,653.2,520.27Z"/><polygon class="cls-35" points="616.78 490.42 619.38 485.93 614.19 485.93 616.78 490.42"/><text class="cls-9" transform="translate(588.9 385.18)">添加成功</text><polyline class="cls-48" points="586.33 385.18 583.9 382.75 586.33 380.32"/><circle class="cls-36" cx="616.78" cy="502.43" r="9.74"/><path class="cls-41" d="M649.66,465.62v12.65a5.39,5.39,0,0,1-5.38,5.39h-55a5.39,5.39,0,0,1-5.36-5.39V465.62Z"/><path class="cls-41" d="M649.66,466.14V473a5.38,5.38,0,0,1-5.38,5.38h-55A5.38,5.38,0,0,1,583.9,473v-6.87Z"/><path class="cls-79" d="M649.67,463.17v4.59a5.39,5.39,0,0,1-5.37,5.37h-55a5.39,5.39,0,0,1-5.39-5.37v-4.59a5.38,5.38,0,0,1,5.37-5.37h55A5.39,5.39,0,0,1,649.67,463.17Z"/><text class="cls-44" transform="translate(609.42 468.01)">B<tspan class="cls-45" x="5.11" y="0">T</tspan><tspan class="cls-46" x="9.59" y="0">C</tspan></text><path class="cls-43" d="M621.67,502.36a4.9,4.9,0,0,0-5-4.82,4.8,4.8,0,0,0-1.86.4,4.31,4.31,0,0,0-.84.47,5.36,5.36,0,0,0-.73.61,4.81,4.81,0,0,0-.6.75m-.78,2.73a4.88,4.88,0,0,0,5,4.82h0a4.89,4.89,0,0,0,1.87-.4,5.16,5.16,0,0,0,.83-.46,4.87,4.87,0,0,0,.74-.62,4.75,4.75,0,0,0,.59-.75"/><path class="cls-43" d="M621.61,498l.06,4.34"/><path class="cls-43" d="M611.9,502.5l.06,4.34"/><circle class="cls-80" cx="616.78" cy="422.27" r="22.55"/><polyline class="cls-81" points="605.43 422.5 613.46 430.53 628.14 415.85"/><text class="cls-49" transform="translate(608.05 452.29)">添加成功！</text><path class="cls-5" d="M554.75,380.89q0,69.76,0,139.54a9.37,9.37,0,0,1-9.5,9.53H491.42a9.37,9.37,0,0,1-9.5-9.53q0-69.76,0-139.54a9.38,9.38,0,0,1,9.5-9.53h7.19c1.31,4.36,2.68,5.38,7.08,5.38H531c4.4,0,5.78-1,7.09-5.38h7.19A9.38,9.38,0,0,1,554.75,380.89Z"/><path class="cls-32" d="M554.75,518v4.57a9.46,9.46,0,0,1-9.45,9.47H491.36a9.47,9.47,0,0,1-9.45-9.47V518Z"/><path class="cls-34" d="M506.94,521.22a.66.66,0,0,0-.65-.66h-7.45a.66.66,0,0,0-.65.66v2h8.75Z"/><path class="cls-34" d="M498.21,527.36l2.67-2.7,1.44,1.38,1.76-1.54,1,1"/><path class="cls-34" d="M506.94,522.75v4.16a.66.66,0,0,1-.65.66h-6.35"/><path class="cls-34" d="M501.5,521.88h3.94"/><path class="cls-34" d="M499.74,521.88h.44"/><path class="cls-34" d="M498.19,522.75v2"/><path class="cls-33" d="M533.45,521.74l2.67-1.54.89,1.54Z"/><path class="cls-33" d="M530.74,522.13a.39.39,0,0,1,.39-.39h7a.39.39,0,0,1,.39.39v5.42a.38.38,0,0,1-.39.38h-7a.38.38,0,0,1-.39-.38Z"/><path class="cls-33" d="M536.79,525.81h1.69v-1.94h-1.69a1,1,0,1,0,0,1.94Z"/><path class="cls-33" d="M538.48,522.61v4.65"/><path class="cls-4" d="M544.62,367.78H492c-8.62,0-13.86,5.26-13.86,13.9V519.93c0,8.21,5.36,13.59,13.54,13.6H545c8.18,0,13.53-5.39,13.53-13.6q0-34.71,0-69.44V381.68C558.49,373,553.24,367.79,544.62,367.78Zm10.13,152.49a9.37,9.37,0,0,1-9.51,9.53H491.42a9.37,9.37,0,0,1-9.5-9.53q0-69.76,0-139.54a9.38,9.38,0,0,1,9.5-9.53h7.19c1.31,4.36,2.68,5.38,7.08,5.38H531c4.4,0,5.78-1,7.09-5.38h7.18a9.38,9.38,0,0,1,9.51,9.53Q554.77,450.5,554.75,520.27Z"/><rect class="cls-82" x="486.5" y="416.84" width="63.66" height="54.85" rx="7.5" ry="7.5"/><text class="cls-83" transform="translate(493.13 454.33)">您是否已保存好分存图片</text><path class="cls-84" d="M518.33,423.2l-12.18,21.05h24.37Z"/><path class="cls-85" d="M518.33,439.82v.55"/><path class="cls-85" d="M518.33,431v5.53"/><line class="cls-86" x1="486.5" y1="460.5" x2="550.17" y2="460.5"/><line class="cls-87" x1="500.38" y1="464.13" x2="504.6" y2="468.35"/><line class="cls-87" x1="504.6" y1="464.13" x2="500.38" y2="468.35"/><polyline class="cls-87" points="530.09 466.05 532.28 468.25 536.29 464.24"/><circle class="cls-1" cx="29.93" cy="63" r="3.09"/><circle class="cls-1" cx="118.14" cy="63" r="3.09"/><circle class="cls-1" cx="184.88" cy="198.86" r="3.09"/><circle class="cls-1" cx="283.43" cy="198.86" r="3.09"/><circle class="cls-1" cx="381.07" cy="198.86" r="3.09"/><circle class="cls-1" cx="479.85" cy="198.86" r="3.09"/><circle class="cls-1" cx="585.12" cy="190.55" r="3.09"/><circle class="cls-1" cx="256.81" cy="224.14" r="3.09"/><circle class="cls-1" cx="223" cy="331.03" r="3.09"/><circle class="cls-1" cx="333.85" cy="502.43" r="3.09"/><circle class="cls-1" cx="381.17" cy="382.75" r="3.09"/><circle class="cls-1" cx="432.29" cy="502.5" r="3.09"/><circle class="cls-1" cx="486.5" cy="440.09" r="3.09"/><circle class="cls-1" cx="502.49" cy="474.35" r="3.09"/><circle class="cls-1" cx="533.19" cy="474.35" r="3.09"/><circle class="cls-1" cx="617.17" cy="515.25" r="3.09"/><circle class="cls-1" cx="576.63" cy="382.75" r="3.09"/><circle class="cls-1" cx="333.85" cy="318.54" r="3.09"/><circle class="cls-1" cx="450.77" cy="321.63" r="3.09"/><polyline class="cls-88" points="29.93 63 118.14 63 118.14 15.1 186.57 15.1"/><polyline class="cls-88" points="186.57 198.86 118.14 198.86 118.14 63"/><polyline class="cls-88" points="255.88 224.14 272.13 224.14 272.13 198.86 285.02 198.86"/><polyline class="cls-88" points="331.18 318.54 370.43 318.54 370.43 198.86 383.46 198.86"/><polyline class="cls-88" points="447.92 321.55 469.5 321.55 469.5 198.86 478.18 198.86"/><polyline class="cls-88" points="469.5 198.86 469.5 171.71 585.12 171.71 585.12 188.71"/><polyline class="cls-88" points="223 328.28 223 382.75 285.02 382.75"/><polyline class="cls-88" points="331.18 502.43 370.6 502.43 370.6 382.75 383.47 382.75"/><polyline class="cls-88" points="429.63 502.43 470.01 502.43 470.01 440.09 486.5 440.09"/><polyline class="cls-88" points="470.01 502.43 470.01 358.96 566.7 358.96 566.7 382.75 580.36 382.75"/><polyline class="cls-88" points="537.42 474.35 566.7 474.35 566.7 382.75"/><text class="cls-42" transform="translate(495.68 482.98)">B<tspan class="cls-89" x="3.29" y="0">A</tspan><tspan class="cls-90" x="6.79" y="0">C</tspan><tspan x="10.7" y="0">K</tspan></text><polyline class="cls-88" points="167.7 198.86 167.7 548.72 617.17 548.72 617.17 512.17"/><polyline class="cls-88" points="585.12 176.21 585.12 150.23 381.17 150.23 381.17 198.86"/></g></g></svg>